<svg width="876" height="261" viewBox="0 0 876 261" fill="none" xmlns="http://www.w3.org/2000/svg">
<g style="mix-blend-mode:screen">
<path d="M182.572 172.472H130.359L135.476 165.081C141.731 155.984 142.868 153.141 142.868 149.54C142.868 141.201 135.855 136.937 133.392 136.937C131.591 136.937 131.307 137.127 128.369 140.254C125.716 143.097 121.641 147.456 113.776 152.952C103.826 159.869 92.8341 164.702 81.2733 167.45H78.8094L77.5776 166.882C66.5854 160.059 60.0469 148.214 60.0469 135.137C60.0469 131.252 60.6155 127.651 61.7526 124.05L84.5898 53.4531H162.483C185.131 53.4531 203.988 70.4153 205.41 92.1155C205.694 97.1378 205.125 102.16 203.609 106.993L182.478 172.472H182.572ZM148.174 162.996H175.75L194.702 104.15C195.839 100.454 196.313 96.5692 196.028 92.684C194.891 75.9114 180.203 62.8345 162.483 62.8345H91.4126L70.7549 126.893C69.902 129.546 69.5229 132.199 69.5229 135.042C69.5229 144.139 73.7872 152.478 80.989 157.69C90.7494 155.131 99.9412 150.867 108.375 145.087C115.387 140.159 118.893 136.463 121.452 133.715C124.674 130.304 127.422 127.366 133.392 127.366C141.067 127.366 152.344 135.99 152.344 149.446C152.344 154.184 151.017 157.974 148.08 162.996H148.174Z" fill="url(#paint0_linear_3589_566)"/>
<path d="M240.913 172.464H130.422L135.539 165.073C141.793 155.976 142.93 153.133 142.93 149.532C142.93 141.193 135.918 136.929 133.454 136.929C131.654 136.929 131.369 137.119 128.432 140.246C125.779 143.089 121.704 147.448 113.839 152.944C103.889 159.861 92.8966 164.694 81.3358 167.442H78.8721L77.6401 166.873C66.6479 160.051 60.1094 148.206 60.1094 135.129C60.1094 131.243 60.678 127.643 61.8151 124.042L83.5153 56.7617C86.3581 47.9489 93.9389 24.8272 94.318 23.7849C100.288 9.19173 113.839 0 129.095 0H275.784C288.956 0 299.664 4.45367 305.919 12.5083C311.509 19.7101 313.12 29.1862 310.562 39.3256L309.993 41.5999C309.425 43.9689 308.951 46.0536 308.193 48.5174L276.353 146.405C274.647 151.712 271.805 156.639 267.825 160.809C262.897 166.115 256.453 169.906 249.157 171.611C246.503 172.275 243.661 172.654 240.723 172.654L240.913 172.464ZM148.142 162.988H240.913C242.997 162.988 245.082 162.704 247.072 162.23C252.568 160.903 257.401 158.155 261.002 154.176C264.034 150.954 266.119 147.353 267.446 143.373L299.285 45.4851C299.949 43.3056 300.422 41.4104 300.896 39.2309L301.465 36.7672C303.36 29.4706 302.318 22.9321 298.527 18.0993C294.073 12.4137 286.019 9.2865 275.879 9.2865H129.19C117.819 9.2865 107.679 16.2041 103.32 26.8173C103.32 26.8173 93.7495 56.193 92.6123 59.6044L70.9121 126.884C70.0592 129.538 69.6803 132.191 69.6803 135.034C69.6803 144.131 73.9444 152.47 81.1462 157.682C90.9066 155.123 100.098 150.859 108.532 145.078C115.544 140.151 119.051 136.455 121.609 133.707C124.831 130.296 127.579 127.358 133.549 127.358C141.224 127.358 152.501 135.982 152.501 149.438C152.501 154.176 151.174 157.966 148.237 162.988H148.142Z" fill="url(#paint1_linear_3589_566)"/>
<path d="M56.1191 260.017C53.7501 260.017 51.4759 259.069 49.6755 257.458C22.8582 231.02 4.7589 213.015 4.7589 213.015L3.90609 211.878C2.67421 209.509 -1.40051 201.455 0.494705 195.485L19.8258 136.07C36.5984 84.1409 37.9252 80.2558 38.399 79.1186C44.5584 63.7674 59.9096 53.3438 76.5875 53.3438H94.4972L70.7124 126.878C69.8595 129.531 69.4804 132.185 69.4804 135.027C69.4804 144.124 73.7447 152.463 80.9465 157.675C90.7069 155.117 99.8987 150.852 108.332 145.072C117.335 138.723 123.115 131.995 123.115 131.9C126.147 128.773 129.653 127.352 133.349 127.352C141.025 127.352 152.301 135.975 152.301 149.431C152.301 156.159 149.648 161.086 143.204 170.373C129.464 190.747 110.607 207.614 88.8117 219.175C84.0737 221.733 79.146 224.008 73.9342 225.998L64.932 253.668C63.8896 256.7 61.4258 258.974 58.2987 259.732C57.5407 259.922 56.7825 260.017 56.1191 260.017ZM11.9608 206.761C15.0879 209.888 32.2395 226.85 56.3087 250.635L66.3533 218.796L68.4381 218.038C74.0289 215.953 79.3356 213.489 84.3579 210.836C104.826 200.033 122.546 184.208 135.434 165.066C141.783 155.969 142.825 153.032 142.825 149.431C142.825 141.092 135.813 136.828 133.349 136.828C132.212 136.828 131.075 137.302 130.222 138.154C127.853 140.997 121.504 147.441 113.734 152.842C103.784 159.76 92.7916 164.593 81.2308 167.341H78.7669L77.5351 166.772C66.5429 159.949 60.0044 148.104 60.0044 135.027C60.0044 131.142 60.573 127.541 61.7101 123.94L81.4202 62.8198H76.4928C63.6053 62.8198 51.855 70.8745 47.0222 82.8143C46.4536 84.141 42.3789 96.8388 28.7333 139.007L9.40223 198.422C9.02318 199.559 10.1603 203.539 11.866 206.761H11.9608Z" fill="url(#paint2_linear_3589_566)"/>
</g>
<path d="M360.407 164V80.3976H389.364C393.101 80.3976 396.604 81.0203 399.873 82.2658C403.22 83.5113 406.139 85.2627 408.63 87.5202C411.121 89.7776 413.067 92.502 414.468 95.6936C415.947 98.8073 416.687 102.271 416.687 106.085C416.687 109.822 415.947 113.286 414.468 116.477C413.067 119.591 411.121 122.277 408.63 124.534C406.139 126.791 403.22 128.543 399.873 129.788C396.604 131.034 393.101 131.657 389.364 131.657H373.601V164H360.407ZM389.714 119.046C391.894 119.046 393.84 118.696 395.553 117.995C397.265 117.217 398.705 116.205 399.873 114.959C401.041 113.714 401.936 112.313 402.558 110.756C403.181 109.199 403.493 107.642 403.493 106.085C403.493 104.451 403.181 102.855 402.558 101.298C401.936 99.7414 401.041 98.3791 399.873 97.2115C398.705 95.966 397.265 94.9541 395.553 94.1756C393.84 93.3972 391.894 93.008 389.714 93.008H373.601V119.046H389.714ZM426.042 106.786H438.303V115.427H439.003C439.704 113.948 440.638 112.585 441.805 111.34C443.051 110.017 444.413 108.927 445.892 108.07C447.449 107.136 449.045 106.436 450.679 105.969C452.392 105.424 454.027 105.151 455.583 105.151C457.452 105.151 459.047 105.307 460.371 105.618C461.694 105.93 462.901 106.358 463.99 106.903L460.254 118.929C459.398 118.54 458.425 118.268 457.335 118.112C456.323 117.879 455.078 117.762 453.599 117.762C451.497 117.762 449.551 118.19 447.76 119.046C446.048 119.902 444.53 121.07 443.207 122.549C441.883 124.028 440.832 125.78 440.054 127.803C439.353 129.827 439.003 131.968 439.003 134.225V164H426.042V106.786ZM478.442 96.6277C475.951 96.6277 473.849 95.7714 472.136 94.0589C470.502 92.3464 469.684 90.2835 469.684 87.8704C469.684 85.4573 470.502 83.3945 472.136 81.682C473.849 79.9695 475.951 79.1132 478.442 79.1132C480.855 79.1132 482.879 79.9695 484.513 81.682C486.226 83.3945 487.082 85.4573 487.082 87.8704C487.082 90.2835 486.226 92.3464 484.513 94.0589C482.879 95.7714 480.855 96.6277 478.442 96.6277ZM471.903 164V106.786H484.864V164H471.903ZM516.653 160.731L492.834 106.786H507.312L523.075 144.734H523.659L538.955 106.786H553.317L517.471 189.221H503.693L516.653 160.731ZM593.597 156.994H592.897C591.184 159.252 588.966 161.314 586.241 163.183C583.517 164.973 580.053 165.868 575.849 165.868C572.814 165.868 569.972 165.362 567.326 164.35C564.679 163.416 562.383 162.093 560.437 160.38C558.491 158.59 556.934 156.527 555.766 154.192C554.676 151.779 554.132 149.132 554.132 146.252C554.132 143.216 554.715 140.492 555.883 138.079C557.128 135.665 558.802 133.642 560.904 132.007C563.083 130.372 565.652 129.127 568.61 128.27C571.568 127.336 574.76 126.869 578.185 126.869C581.999 126.869 585.191 127.259 587.759 128.037C590.328 128.738 592.274 129.399 593.597 130.022V127.803C593.597 126.091 593.208 124.495 592.43 123.016C591.729 121.537 590.717 120.292 589.394 119.28C588.149 118.19 586.708 117.373 585.074 116.828C583.439 116.205 581.727 115.894 579.936 115.894C577.056 115.894 574.448 116.477 572.113 117.645C569.856 118.735 567.832 120.525 566.041 123.016L555.766 116.244C558.491 112.507 561.877 109.705 565.925 107.837C569.972 105.891 574.565 104.918 579.703 104.918C588.187 104.918 594.726 107.02 599.319 111.223C603.989 115.427 606.325 121.42 606.325 129.205V164H593.597V156.994ZM593.597 140.18C591.885 139.168 589.978 138.351 587.876 137.728C585.774 137.106 583.361 136.794 580.637 136.794C576.589 136.794 573.359 137.728 570.945 139.597C568.532 141.465 567.326 143.722 567.326 146.369C567.326 147.77 567.637 149.015 568.26 150.105C568.883 151.117 569.661 152.012 570.595 152.791C571.607 153.569 572.736 154.153 573.981 154.542C575.305 154.931 576.628 155.126 577.951 155.126C580.053 155.126 582.038 154.737 583.906 153.958C585.852 153.102 587.526 152.012 588.927 150.689C590.328 149.288 591.457 147.692 592.313 145.902C593.169 144.111 593.597 142.204 593.597 140.18ZM618.519 106.786H630.779V115.427H631.48C632.18 113.948 633.115 112.585 634.282 111.34C635.528 110.017 636.89 108.927 638.369 108.07C639.926 107.136 641.521 106.436 643.156 105.969C644.869 105.424 646.503 105.151 648.06 105.151C649.928 105.151 651.524 105.307 652.847 105.618C654.171 105.93 655.377 106.358 656.467 106.903L652.731 118.929C651.874 118.54 650.901 118.268 649.812 118.112C648.8 117.879 647.554 117.762 646.075 117.762C643.973 117.762 642.027 118.19 640.237 119.046C638.525 119.902 637.007 121.07 635.683 122.549C634.36 124.028 633.309 125.78 632.531 127.803C631.83 129.827 631.48 131.968 631.48 134.225V164H618.519V106.786ZM670.918 96.6277C668.427 96.6277 666.326 95.7714 664.613 94.0589C662.979 92.3464 662.161 90.2835 662.161 87.8704C662.161 85.4573 662.979 83.3945 664.613 81.682C666.326 79.9695 668.427 79.1132 670.918 79.1132C673.332 79.1132 675.355 79.9695 676.99 81.682C678.703 83.3945 679.559 85.4573 679.559 87.8704C679.559 90.2835 678.703 92.3464 676.99 94.0589C675.355 95.7714 673.332 96.6277 670.918 96.6277ZM664.38 164V106.786H677.34V164H664.38ZM697.117 118.229H687.076V106.786H697.117V89.2716H710.078V106.786H724.206V118.229H710.078V143.683C710.078 145.084 710.234 146.369 710.545 147.536C710.856 148.704 711.323 149.677 711.946 150.455C713.269 151.934 714.943 152.674 716.967 152.674C718.212 152.674 719.185 152.596 719.886 152.44C720.587 152.207 721.326 151.896 722.104 151.506L726.074 162.949C724.44 163.572 722.727 164.039 720.937 164.35C719.146 164.739 717.123 164.934 714.865 164.934C712.141 164.934 709.728 164.506 707.626 163.65C705.524 162.793 703.695 161.626 702.138 160.147C698.791 156.8 697.117 152.246 697.117 146.486V118.229ZM742.983 96.6277C740.492 96.6277 738.39 95.7714 736.678 94.0589C735.043 92.3464 734.226 90.2835 734.226 87.8704C734.226 85.4573 735.043 83.3945 736.678 81.682C738.39 79.9695 740.492 79.1132 742.983 79.1132C745.396 79.1132 747.42 79.9695 749.055 81.682C750.767 83.3945 751.624 85.4573 751.624 87.8704C751.624 90.2835 750.767 92.3464 749.055 94.0589C747.42 95.7714 745.396 96.6277 742.983 96.6277ZM736.444 164V106.786H749.405V164H736.444ZM815.887 150.339C813.474 154.776 810.049 158.473 805.612 161.431C801.175 164.389 795.726 165.868 789.265 165.868C784.984 165.868 781.014 165.129 777.355 163.65C773.775 162.093 770.661 159.952 768.014 157.228C765.368 154.503 763.305 151.312 761.826 147.653C760.347 143.917 759.607 139.83 759.607 135.393C759.607 131.267 760.308 127.375 761.709 123.717C763.11 119.98 765.056 116.75 767.547 114.025C770.116 111.223 773.191 109.005 776.771 107.37C780.352 105.735 784.322 104.918 788.681 104.918C793.118 104.918 797.049 105.657 800.474 107.136C803.977 108.615 806.935 110.678 809.348 113.325C811.761 115.971 813.591 119.163 814.836 122.899C816.16 126.636 816.821 130.723 816.821 135.16C816.821 135.549 816.821 135.899 816.821 136.21C816.743 136.6 816.704 136.95 816.704 137.261C816.627 137.573 816.588 137.884 816.588 138.195H772.568C772.802 140.92 773.463 143.294 774.553 145.318C775.643 147.342 776.966 149.015 778.523 150.339C780.158 151.662 781.948 152.635 783.894 153.258C785.84 153.881 787.747 154.192 789.615 154.192C793.352 154.192 796.427 153.297 798.84 151.506C801.253 149.716 803.238 147.497 804.795 144.851L815.887 150.339ZM803.861 128.27C803.705 127.103 803.316 125.818 802.693 124.417C802.148 122.938 801.253 121.615 800.007 120.447C798.84 119.202 797.283 118.151 795.337 117.295C793.469 116.438 791.172 116.01 788.448 116.01C784.711 116.01 781.481 117.139 778.756 119.396C776.11 121.576 774.319 124.534 773.385 128.27H803.861ZM848.906 165.868C845.403 165.868 842.25 165.401 839.448 164.467C836.645 163.533 834.193 162.326 832.092 160.847C829.99 159.291 828.2 157.539 826.721 155.593C825.319 153.647 824.23 151.623 823.451 149.521L835.127 144.617C836.451 147.965 838.358 150.455 840.849 152.09C843.34 153.647 846.025 154.425 848.906 154.425C852.175 154.425 854.744 153.764 856.612 152.44C858.48 151.117 859.414 149.638 859.414 148.003C859.414 146.369 858.714 144.968 857.312 143.8C855.911 142.555 853.265 141.465 849.373 140.531L841.199 138.546C839.409 138.156 837.58 137.573 835.711 136.794C833.921 135.938 832.247 134.887 830.69 133.642C829.134 132.318 827.849 130.761 826.837 128.971C825.903 127.103 825.436 124.923 825.436 122.432C825.436 119.63 826.02 117.139 827.188 114.959C828.433 112.78 830.107 110.951 832.208 109.472C834.31 107.993 836.723 106.864 839.448 106.085C842.25 105.307 845.208 104.918 848.322 104.918C850.891 104.918 853.343 105.19 855.678 105.735C858.091 106.28 860.309 107.097 862.333 108.187C864.357 109.277 866.148 110.678 867.704 112.391C869.339 114.025 870.623 115.971 871.558 118.229L860.115 123.016C859.025 120.525 857.312 118.735 854.977 117.645C852.642 116.477 850.268 115.894 847.855 115.894C846.765 115.894 845.636 116.049 844.469 116.361C843.379 116.594 842.367 116.983 841.433 117.528C840.576 117.995 839.837 118.618 839.214 119.396C838.669 120.175 838.397 121.031 838.397 121.965C838.397 123.522 839.059 124.768 840.382 125.702C841.783 126.558 843.885 127.336 846.687 128.037L855.444 130.255C861.36 131.734 865.681 133.992 868.405 137.028C871.207 139.986 872.608 143.489 872.608 147.536C872.608 150.027 872.025 152.363 870.857 154.542C869.767 156.722 868.171 158.668 866.07 160.38C863.968 162.093 861.438 163.416 858.48 164.35C855.6 165.362 852.408 165.868 848.906 165.868Z" fill="url(#paint3_linear_3589_566)"/>
<g clip-path="url(#clip0_3589_566)" filter="url(#filter0_i_3589_566)">
<path d="M759.456 190.888C760.185 190.888 760.85 191.018 761.451 191.279C762.065 191.527 762.589 191.88 763.024 192.336C763.471 192.78 763.817 193.315 764.06 193.942C764.315 194.568 764.443 195.253 764.443 195.997C764.443 196.741 764.315 197.426 764.06 198.052C763.817 198.679 763.471 199.22 763.024 199.677C762.589 200.121 762.065 200.473 761.451 200.734C760.85 200.982 760.185 201.106 759.456 201.106C758.727 201.106 758.056 200.982 757.442 200.734C756.841 200.473 756.317 200.121 755.869 199.677C755.434 199.22 755.089 198.679 754.833 198.052C754.59 197.426 754.469 196.741 754.469 195.997C754.469 195.253 754.59 194.568 754.833 193.942C755.089 193.315 755.434 192.78 755.869 192.336C756.317 191.88 756.841 191.527 757.442 191.279C758.056 191.018 758.727 190.888 759.456 190.888ZM759.456 198.737C759.776 198.737 760.083 198.679 760.377 198.561C760.684 198.431 760.952 198.248 761.182 198.013C761.413 197.778 761.592 197.491 761.719 197.152C761.86 196.812 761.93 196.428 761.93 195.997C761.93 195.566 761.86 195.181 761.719 194.842C761.592 194.503 761.413 194.216 761.182 193.981C760.952 193.746 760.684 193.57 760.377 193.452C760.083 193.322 759.776 193.256 759.456 193.256C759.124 193.256 758.81 193.322 758.516 193.452C758.222 193.57 757.96 193.746 757.73 193.981C757.499 194.216 757.314 194.503 757.173 194.842C757.045 195.181 756.982 195.566 756.982 195.997C756.982 196.428 757.045 196.812 757.173 197.152C757.314 197.491 757.499 197.778 757.73 198.013C757.96 198.248 758.222 198.431 758.516 198.561C758.81 198.679 759.124 198.737 759.456 198.737ZM766.365 186.777H769.376L774.901 196.173H775.054L774.901 193.472V186.777H777.471V200.793H774.747L768.916 190.868H768.762L768.916 193.57V200.793H766.365V186.777ZM785.431 199.775H785.278C784.984 200.14 784.626 200.453 784.204 200.714C783.795 200.975 783.264 201.106 782.612 201.106C782.126 201.106 781.665 201.021 781.231 200.851C780.809 200.695 780.438 200.473 780.118 200.186C779.798 199.899 779.549 199.553 779.37 199.148C779.191 198.744 779.101 198.3 779.101 197.817C779.101 197.321 779.197 196.878 779.389 196.486C779.581 196.082 779.849 195.736 780.195 195.449C780.54 195.162 780.943 194.946 781.403 194.803C781.876 194.646 782.388 194.568 782.938 194.568C783.552 194.568 784.057 194.62 784.453 194.725C784.85 194.816 785.176 194.914 785.431 195.018V194.725C785.431 194.216 785.233 193.798 784.837 193.472C784.44 193.132 783.948 192.963 783.36 192.963C782.49 192.963 781.755 193.335 781.154 194.079L779.332 192.806C780.329 191.527 781.691 190.888 783.417 190.888C784.875 190.888 785.988 191.24 786.755 191.945C787.522 192.637 787.906 193.668 787.906 195.038V200.793H785.431V199.775ZM785.431 196.897C785.137 196.754 784.83 196.643 784.511 196.565C784.204 196.473 783.865 196.428 783.494 196.428C782.893 196.428 782.426 196.565 782.094 196.839C781.774 197.1 781.614 197.426 781.614 197.817C781.614 198.209 781.768 198.522 782.075 198.757C782.394 198.992 782.759 199.109 783.168 199.109C783.5 199.109 783.807 199.05 784.089 198.933C784.37 198.803 784.607 198.639 784.798 198.444C785.003 198.235 785.156 198 785.259 197.739C785.374 197.465 785.431 197.184 785.431 196.897ZM788.719 191.201H791.577L793.917 197.308H794.052L796.411 191.201H799.25L795.203 200.793H792.728L788.719 191.201Z" fill="white"/>
<path d="M752.157 195.671C751.727 197.307 750.799 198.731 749.528 199.707C748.256 200.682 746.718 201.149 745.171 201.03C743.623 200.911 742.16 200.213 741.025 199.053C739.89 197.892 739.152 196.339 738.934 194.653C738.717 192.968 739.033 191.251 739.829 189.79C740.626 188.329 741.855 187.213 743.312 186.626C744.768 186.04 746.364 186.02 747.832 186.57C749.3 187.119 750.553 188.205 751.379 189.646L749.47 190.966C748.919 190.005 748.083 189.28 747.104 188.914C746.124 188.547 745.06 188.561 744.088 188.951C743.117 189.342 742.297 190.087 741.765 191.062C741.234 192.036 741.023 193.182 741.168 194.306C741.313 195.431 741.806 196.466 742.563 197.241C743.32 198.015 744.296 198.481 745.329 198.56C746.361 198.639 747.387 198.328 748.235 197.677C749.083 197.026 749.702 196.076 749.989 194.985L752.157 195.671Z" fill="white"/>
<path d="M752.679 193.738H745.773V195.826H752.679V193.738Z" fill="white"/>
<path d="M750.633 194.004V201.051H752.679V194.004H750.633Z" fill="white"/>
</g>
<path d="M723.792 186.661H725.274L730.821 201H729.419L727.857 196.855H721.209L719.647 201H718.245L723.792 186.661ZM727.397 195.653L724.573 188.223H724.493L721.669 195.653H727.397Z" fill="white"/>
<path d="M810.751 201.32C810.23 201.32 809.716 201.234 809.209 201.06C808.701 200.9 808.227 200.66 807.787 200.339C807.346 200.005 806.953 199.598 806.605 199.118C806.272 198.637 806.025 198.083 805.864 197.455L807.066 196.955C807.186 197.409 807.36 197.829 807.587 198.216C807.827 198.604 808.107 198.937 808.428 199.218C808.748 199.498 809.109 199.718 809.509 199.879C809.91 200.025 810.337 200.099 810.791 200.099C811.231 200.099 811.652 200.039 812.052 199.919C812.453 199.785 812.8 199.598 813.094 199.358C813.401 199.104 813.641 198.804 813.815 198.457C813.988 198.096 814.075 197.696 814.075 197.255C814.075 196.494 813.795 195.88 813.234 195.413C812.673 194.932 811.859 194.505 810.791 194.131L809.89 193.811C809.462 193.664 809.042 193.49 808.628 193.29C808.214 193.076 807.84 192.823 807.507 192.529C807.186 192.235 806.926 191.888 806.726 191.488C806.525 191.074 806.425 190.593 806.425 190.046C806.425 189.552 806.525 189.078 806.726 188.624C806.939 188.17 807.233 187.776 807.607 187.442C807.981 187.109 808.428 186.842 808.948 186.641C809.469 186.441 810.037 186.341 810.651 186.341C811.305 186.341 811.879 186.441 812.373 186.641C812.867 186.828 813.287 187.069 813.635 187.362C813.995 187.643 814.275 187.95 814.476 188.283C814.689 188.617 814.843 188.924 814.936 189.205L813.735 189.705C813.668 189.465 813.554 189.225 813.394 188.984C813.247 188.731 813.047 188.497 812.793 188.283C812.54 188.07 812.239 187.896 811.892 187.763C811.545 187.629 811.138 187.563 810.671 187.563C810.27 187.563 809.89 187.623 809.529 187.743C809.182 187.863 808.868 188.036 808.588 188.263C808.321 188.477 808.107 188.737 807.947 189.044C807.8 189.352 807.727 189.685 807.727 190.046C807.727 190.393 807.794 190.7 807.927 190.967C808.074 191.221 808.274 191.454 808.528 191.668C808.782 191.868 809.082 192.055 809.429 192.229C809.776 192.389 810.157 192.542 810.571 192.689L811.492 193.03C812.026 193.217 812.526 193.43 812.994 193.67C813.474 193.911 813.888 194.198 814.235 194.532C814.582 194.852 814.856 195.233 815.056 195.673C815.27 196.114 815.377 196.621 815.377 197.195C815.377 197.916 815.237 198.537 814.956 199.057C814.676 199.578 814.315 200.005 813.875 200.339C813.434 200.673 812.934 200.92 812.373 201.08C811.826 201.24 811.285 201.32 810.751 201.32ZM821.745 190.867C822.466 190.867 823.127 191 823.727 191.267C824.342 191.534 824.869 191.902 825.31 192.369C825.75 192.836 826.091 193.39 826.331 194.031C826.585 194.658 826.711 195.346 826.711 196.094C826.711 196.841 826.585 197.535 826.331 198.176C826.091 198.804 825.75 199.351 825.31 199.818C824.869 200.286 824.342 200.653 823.727 200.92C823.127 201.187 822.466 201.32 821.745 201.32C821.037 201.32 820.376 201.187 819.762 200.92C819.162 200.653 818.641 200.286 818.2 199.818C817.76 199.351 817.413 198.804 817.159 198.176C816.919 197.535 816.798 196.841 816.798 196.094C816.798 195.346 816.919 194.658 817.159 194.031C817.413 193.39 817.76 192.836 818.2 192.369C818.641 191.902 819.162 191.534 819.762 191.267C820.376 191 821.037 190.867 821.745 190.867ZM821.745 200.159C822.226 200.159 822.686 200.065 823.127 199.879C823.567 199.678 823.954 199.405 824.288 199.057C824.635 198.697 824.909 198.27 825.109 197.776C825.323 197.268 825.43 196.708 825.43 196.094C825.43 195.479 825.323 194.925 825.109 194.431C824.909 193.924 824.635 193.497 824.288 193.15C823.954 192.789 823.567 192.516 823.127 192.329C822.686 192.128 822.226 192.028 821.745 192.028C821.264 192.028 820.804 192.128 820.363 192.329C819.923 192.516 819.529 192.789 819.182 193.15C818.848 193.497 818.581 193.924 818.381 194.431C818.18 194.925 818.08 195.479 818.08 196.094C818.08 196.708 818.18 197.268 818.381 197.776C818.581 198.27 818.848 198.697 819.182 199.057C819.529 199.405 819.923 199.678 820.363 199.879C820.804 200.065 821.264 200.159 821.745 200.159ZM828.39 201V186.661H829.672V201H828.39ZM839.176 199.158H839.096C838.936 199.451 838.743 199.732 838.516 199.999C838.289 200.252 838.022 200.479 837.715 200.68C837.421 200.88 837.087 201.033 836.713 201.14C836.353 201.26 835.966 201.32 835.552 201.32C834.951 201.32 834.424 201.22 833.97 201.02C833.516 200.833 833.142 200.566 832.848 200.219C832.555 199.859 832.334 199.438 832.187 198.957C832.041 198.463 831.967 197.923 831.967 197.335V191.187H833.249V197.115C833.249 198.156 833.476 198.924 833.93 199.418C834.397 199.912 835.051 200.159 835.892 200.159C836.359 200.159 836.787 200.052 837.174 199.838C837.574 199.625 837.915 199.345 838.195 198.997C838.476 198.65 838.696 198.25 838.856 197.796C839.016 197.329 839.096 196.848 839.096 196.354V191.187H840.378V201H839.176V199.158ZM843.963 192.349H842.181V191.187H843.963V188.183H845.245V191.187H847.688V192.349H845.245V198.256C845.245 198.831 845.385 199.258 845.666 199.538C845.933 199.832 846.253 199.979 846.627 199.979C846.827 199.979 846.994 199.965 847.128 199.939C847.274 199.899 847.435 199.838 847.608 199.758L848.009 200.86C847.782 200.967 847.548 201.04 847.308 201.08C847.081 201.134 846.807 201.16 846.487 201.16C845.793 201.16 845.205 200.94 844.724 200.499C844.484 200.272 844.297 199.999 844.164 199.678C844.03 199.345 843.963 198.944 843.963 198.477V192.349ZM850.487 188.784C850.207 188.784 849.967 188.691 849.767 188.504C849.58 188.303 849.486 188.07 849.486 187.803C849.486 187.522 849.58 187.289 849.767 187.102C849.967 186.902 850.207 186.802 850.487 186.802C850.754 186.802 850.981 186.902 851.168 187.102C851.369 187.289 851.469 187.522 851.469 187.803C851.469 188.07 851.369 188.303 851.168 188.504C850.981 188.691 850.754 188.784 850.487 188.784ZM849.847 201V191.187H851.128V201H849.847ZM857.886 190.867C858.607 190.867 859.267 191 859.868 191.267C860.482 191.534 861.01 191.902 861.45 192.369C861.891 192.836 862.231 193.39 862.472 194.031C862.725 194.658 862.852 195.346 862.852 196.094C862.852 196.841 862.725 197.535 862.472 198.176C862.231 198.804 861.891 199.351 861.45 199.818C861.01 200.286 860.482 200.653 859.868 200.92C859.267 201.187 858.607 201.32 857.886 201.32C857.178 201.32 856.517 201.187 855.903 200.92C855.302 200.653 854.782 200.286 854.341 199.818C853.9 199.351 853.553 198.804 853.3 198.176C853.059 197.535 852.939 196.841 852.939 196.094C852.939 195.346 853.059 194.658 853.3 194.031C853.553 193.39 853.9 192.836 854.341 192.369C854.782 191.902 855.302 191.534 855.903 191.267C856.517 191 857.178 190.867 857.886 190.867ZM857.886 200.159C858.366 200.159 858.827 200.065 859.267 199.879C859.708 199.678 860.095 199.405 860.429 199.057C860.776 198.697 861.05 198.27 861.25 197.776C861.464 197.268 861.57 196.708 861.57 196.094C861.57 195.479 861.464 194.925 861.25 194.431C861.05 193.924 860.776 193.497 860.429 193.15C860.095 192.789 859.708 192.516 859.267 192.329C858.827 192.128 858.366 192.028 857.886 192.028C857.405 192.028 856.944 192.128 856.504 192.329C856.063 192.516 855.669 192.789 855.322 193.15C854.989 193.497 854.722 193.924 854.521 194.431C854.321 194.925 854.221 195.479 854.221 196.094C854.221 196.708 854.321 197.268 854.521 197.776C854.722 198.27 854.989 198.697 855.322 199.057C855.669 199.405 856.063 199.678 856.504 199.879C856.944 200.065 857.405 200.159 857.886 200.159ZM865.635 193.03H865.715C865.875 192.736 866.069 192.462 866.296 192.209C866.522 191.942 866.783 191.708 867.077 191.508C867.384 191.307 867.717 191.154 868.078 191.047C868.438 190.927 868.825 190.867 869.239 190.867C869.84 190.867 870.367 190.967 870.821 191.167C871.275 191.354 871.649 191.628 871.943 191.988C872.25 192.335 872.477 192.756 872.624 193.25C872.771 193.731 872.844 194.265 872.844 194.852V201H871.562V195.072C871.562 194.018 871.329 193.25 870.861 192.769C870.394 192.275 869.74 192.028 868.899 192.028C868.432 192.028 868.004 192.135 867.617 192.349C867.23 192.549 866.896 192.829 866.616 193.19C866.336 193.537 866.115 193.937 865.955 194.391C865.795 194.845 865.715 195.319 865.715 195.813V201H864.433V191.187H865.635V193.03Z" fill="white"/>
<defs>
<filter id="filter0_i_3589_566" x="737.078" y="182" width="62.4062" height="24.1346" filterUnits="userSpaceOnUse" color-interpolation-filters="sRGB">
<feFlood flood-opacity="0" result="BackgroundImageFix"/>
<feBlend mode="normal" in="SourceGraphic" in2="BackgroundImageFix" result="shape"/>
<feColorMatrix in="SourceAlpha" type="matrix" values="0 0 0 0 0 0 0 0 0 0 0 0 0 0 0 0 0 0 127 0" result="hardAlpha"/>
<feOffset dy="0.38462"/>
<feGaussianBlur stdDeviation="0.19231"/>
<feComposite in2="hardAlpha" operator="arithmetic" k2="-1" k3="1"/>
<feColorMatrix type="matrix" values="0 0 0 0 1 0 0 0 0 1 0 0 0 0 1 0 0 0 0.5 0"/>
<feBlend mode="normal" in2="shape" result="effect1_innerShadow_3589_566"/>
</filter>
<linearGradient id="paint0_linear_3589_566" x1="34.1772" y1="-23.5872" x2="271.173" y2="308.075" gradientUnits="userSpaceOnUse">
<stop stop-color="white"/>
<stop offset="1" stop-color="#383838"/>
</linearGradient>
<linearGradient id="paint1_linear_3589_566" x1="83.8943" y1="-59.0359" x2="320.796" y2="272.626" gradientUnits="userSpaceOnUse">
<stop stop-color="white"/>
<stop offset="1" stop-color="#383838"/>
</linearGradient>
<linearGradient id="paint2_linear_3589_566" x1="-29.7339" y1="22.0728" x2="207.168" y2="353.735" gradientUnits="userSpaceOnUse">
<stop stop-color="white"/>
<stop offset="1" stop-color="#383838"/>
</linearGradient>
<linearGradient id="paint3_linear_3589_566" x1="813.24" y1="52" x2="902.409" y2="310.377" gradientUnits="userSpaceOnUse">
<stop stop-color="white"/>
<stop offset="1" stop-color="#383838"/>
</linearGradient>
<clipPath id="clip0_3589_566">
<rect width="62.4045" height="23.7503" fill="white" transform="translate(737.078 182)"/>
</clipPath>
</defs>
</svg>
