<svg width="332" height="64" viewBox="0 0 332 64" fill="none" xmlns="http://www.w3.org/2000/svg">
<path d="M49.6078 22.2161C49.6831 23.3958 49.5325 24.5002 49.2062 25.5544L44.1359 41.2674H21.0935L14.1407 62.628C13.8897 63.4312 12.8606 63.6822 12.2832 63.0798L0.937798 51.8598C0.084379 51.0315 -0.216831 49.7765 0.159677 48.6469L1.0633 45.8859L9.44688 20.0323C9.52219 19.8064 9.59749 19.5554 9.67279 19.3295C11.0533 15.9409 14.3666 13.5312 18.2572 13.5312H39.944C44.8889 13.5312 49.3066 17.221 49.6078 22.1658V22.2161Z" fill="url(#paint0_linear_3589_567)"/>
<path opacity="0.95" d="M76.2287 8.484C76.0279 9.31232 75.8773 9.93982 75.6514 10.743L68.4224 33.0323L67.6192 35.4922C67.2427 36.697 66.5901 37.7763 65.7367 38.68C64.6574 39.8597 63.2266 40.688 61.6202 41.0645C61.0429 41.2151 60.3903 41.2653 59.7628 41.2653H24.8228C23.7184 41.2653 21.3589 41.0645 20.38 40.6378C17.3679 39.433 15.2344 36.4711 15.2344 33.0073C15.2344 32.1538 15.3599 31.3506 15.6109 30.5474L20.38 15.8636L23.6431 5.79826C23.7184 5.59746 23.7937 5.39665 23.8439 5.17075C25.0738 2.13358 28.0356 0 31.4995 0H68.5731C74.4466 0 77.3834 3.71491 76.2036 8.45891L76.2287 8.484Z" fill="url(#paint1_linear_3589_567)"/>
<path opacity="0.8" d="M49.597 22.2127C49.2707 17.2679 44.8781 13.5781 39.9333 13.5781H21.133L20.38 15.8874L15.6109 30.5712C15.3599 31.3493 15.2344 32.1776 15.2344 33.0311C15.2344 36.4949 17.3679 39.4568 20.38 40.6616C21.3338 41.0633 23.7184 41.2892 24.8228 41.2892H44.1502L49.2205 25.5762C49.5468 24.522 49.6974 23.3924 49.6221 22.2378L49.597 22.2127Z" fill="url(#paint2_linear_3589_567)"/>
<path d="M36.1696 36.6488C36.1696 37.4269 35.9939 38.1297 35.6676 38.7823C35.5672 38.958 35.4919 39.0835 35.3915 39.2341C31.9527 45.1578 26.8573 50.0023 20.7578 53.2151C19.4024 53.9431 17.9968 54.5957 16.541 55.1228C14.9094 55.7503 13.2528 56.2523 11.5208 56.6037C9.21159 57.1057 6.82704 57.4069 4.36719 57.4571C7.40435 57.2061 10.0399 55.4742 11.5208 52.9892C11.9978 52.2362 12.3492 51.3828 12.55 50.5043C12.7508 49.8015 12.8512 49.0484 12.8512 48.2452C12.8512 47.442 12.7508 46.6388 12.55 45.8857C11.7468 42.7984 9.3873 40.3636 6.37523 39.4349C8.70958 40.213 11.1945 40.6397 13.7799 40.6397C18.6745 40.6397 23.2177 39.1086 26.9577 36.5232C28.3884 35.5443 29.7187 34.3897 30.8734 33.0845C30.8985 33.0343 30.9487 32.9841 30.9738 32.959C31.4005 32.5323 31.9527 32.2812 32.6053 32.2812C32.9065 32.2812 33.2077 32.3315 33.4838 32.457C33.4838 32.457 33.5089 32.457 33.534 32.457C33.6595 32.5072 33.785 32.5825 33.9105 32.6578C35.266 33.4359 36.1947 34.9419 36.1947 36.6237L36.1696 36.6488Z" fill="url(#paint3_linear_3589_567)"/>
<path d="M94.3774 25V12.1919H98.5275C99.0761 12.1919 99.5889 12.2813 100.066 12.4602C100.555 12.6391 100.978 12.8955 101.336 13.2294C101.694 13.5514 101.974 13.9449 102.177 14.41C102.391 14.8632 102.499 15.3701 102.499 15.9306C102.499 16.4911 102.391 17.0039 102.177 17.469C101.974 17.9221 101.694 18.3157 101.336 18.6496C100.978 18.9716 100.555 19.222 100.066 19.4009C99.5889 19.5798 99.0761 19.6692 98.5275 19.6692H95.5223V25H94.3774ZM98.5812 18.5781C98.9747 18.5781 99.3385 18.5125 99.6724 18.3813C100.006 18.2382 100.293 18.0474 100.531 17.8088C100.781 17.5703 100.978 17.2901 101.121 16.9681C101.264 16.6461 101.336 16.3003 101.336 15.9306C101.336 15.5609 101.264 15.215 101.121 14.893C100.978 14.5591 100.781 14.2789 100.531 14.0523C100.293 13.8138 100.006 13.6289 99.6724 13.4977C99.3385 13.3546 98.9747 13.2831 98.5812 13.2831H95.5223V18.5781H98.5812ZM104.031 25V16.2347H105.104V17.7731H105.176C105.259 17.5107 105.39 17.2722 105.569 17.0575C105.76 16.8309 105.969 16.6401 106.195 16.4851C106.434 16.3181 106.678 16.1929 106.929 16.1094C107.191 16.026 107.441 15.9842 107.68 15.9842C107.954 15.9842 108.181 16.0021 108.36 16.0379C108.539 16.0737 108.712 16.1333 108.879 16.2168L108.521 17.2901C108.282 17.1708 107.954 17.1112 107.537 17.1112C107.227 17.1112 106.929 17.1887 106.642 17.3437C106.356 17.4869 106.106 17.6896 105.891 17.952C105.676 18.2143 105.504 18.5303 105.372 18.9C105.241 19.2578 105.176 19.6514 105.176 20.0807V25H104.031ZM110.702 14.0881C110.452 14.0881 110.237 14.0046 110.058 13.8376C109.891 13.6587 109.808 13.45 109.808 13.2115C109.808 12.9611 109.891 12.7524 110.058 12.5854C110.237 12.4065 110.452 12.3171 110.702 12.3171C110.941 12.3171 111.144 12.4065 111.311 12.5854C111.49 12.7524 111.579 12.9611 111.579 13.2115C111.579 13.45 111.49 13.6587 111.311 13.8376C111.144 14.0046 110.941 14.0881 110.702 14.0881ZM110.13 25V16.2347H111.275V25H110.13ZM117.311 15.9484C117.955 15.9484 118.545 16.0677 119.082 16.3062C119.63 16.5447 120.102 16.8727 120.495 17.2901C120.889 17.7075 121.193 18.2024 121.407 18.7748C121.634 19.3353 121.747 19.9495 121.747 20.6173C121.747 21.2852 121.634 21.9053 121.407 22.4777C121.193 23.0382 120.889 23.5272 120.495 23.9446C120.102 24.362 119.63 24.6899 119.082 24.9284C118.545 25.167 117.955 25.2862 117.311 25.2862C116.679 25.2862 116.089 25.167 115.54 24.9284C115.003 24.6899 114.538 24.362 114.145 23.9446C113.751 23.5272 113.441 23.0382 113.214 22.4777C113 21.9053 112.893 21.2852 112.893 20.6173C112.893 19.9495 113 19.3353 113.214 18.7748C113.441 18.2024 113.751 17.7075 114.145 17.2901C114.538 16.8727 115.003 16.5447 115.54 16.3062C116.089 16.0677 116.679 15.9484 117.311 15.9484ZM117.311 24.2487C117.74 24.2487 118.152 24.1652 118.545 23.9982C118.939 23.8194 119.285 23.5749 119.583 23.2648C119.893 22.9428 120.137 22.5612 120.316 22.12C120.507 21.6668 120.602 21.1659 120.602 20.6173C120.602 20.0688 120.507 19.5738 120.316 19.1326C120.137 18.6794 119.893 18.2978 119.583 17.9877C119.285 17.6657 118.939 17.4213 118.545 17.2543C118.152 17.0754 117.74 16.986 117.311 16.986C116.882 16.986 116.47 17.0754 116.077 17.2543C115.683 17.4213 115.331 17.6657 115.021 17.9877C114.723 18.2978 114.485 18.6794 114.306 19.1326C114.127 19.5738 114.037 20.0688 114.037 20.6173C114.037 21.1659 114.127 21.6668 114.306 22.12C114.485 22.5612 114.723 22.9428 115.021 23.2648C115.331 23.5749 115.683 23.8194 116.077 23.9982C116.47 24.1652 116.882 24.2487 117.311 24.2487ZM123.159 25V16.2347H124.233V17.7731H124.304C124.388 17.5107 124.519 17.2722 124.698 17.0575C124.889 16.8309 125.097 16.6401 125.324 16.4851C125.562 16.3181 125.807 16.1929 126.057 16.1094C126.32 16.026 126.57 15.9842 126.809 15.9842C127.083 15.9842 127.31 16.0021 127.488 16.0379C127.667 16.0737 127.84 16.1333 128.007 16.2168L127.649 17.2901C127.411 17.1708 127.083 17.1112 126.666 17.1112C126.356 17.1112 126.057 17.1887 125.771 17.3437C125.485 17.4869 125.235 17.6896 125.02 17.952C124.805 18.2143 124.632 18.5303 124.501 18.9C124.37 19.2578 124.304 19.6514 124.304 20.0807V25H123.159ZM129.831 14.0881C129.581 14.0881 129.366 14.0046 129.187 13.8376C129.02 13.6587 128.937 13.45 128.937 13.2115C128.937 12.9611 129.02 12.7524 129.187 12.5854C129.366 12.4065 129.581 12.3171 129.831 12.3171C130.07 12.3171 130.272 12.4065 130.439 12.5854C130.618 12.7524 130.708 12.9611 130.708 13.2115C130.708 13.45 130.618 13.6587 130.439 13.8376C130.272 14.0046 130.07 14.0881 129.831 14.0881ZM129.259 25V16.2347H130.404V25H129.259ZM133.542 17.2722H131.95V16.2347H133.542V13.5514H134.687V16.2347H136.869V17.2722H134.687V22.5493C134.687 23.0621 134.812 23.4437 135.062 23.6941C135.301 23.9565 135.587 24.0877 135.921 24.0877C136.1 24.0877 136.249 24.0758 136.368 24.0519C136.499 24.0161 136.642 23.9625 136.797 23.8909L137.155 24.8748C136.952 24.9702 136.744 25.0358 136.529 25.0716C136.326 25.1193 136.082 25.1431 135.796 25.1431C135.176 25.1431 134.651 24.9463 134.222 24.5528C134.007 24.3501 133.84 24.1056 133.721 23.8194C133.601 23.5212 133.542 23.1635 133.542 22.7461V17.2722ZM139.369 14.0881C139.119 14.0881 138.904 14.0046 138.725 13.8376C138.558 13.6587 138.475 13.45 138.475 13.2115C138.475 12.9611 138.558 12.7524 138.725 12.5854C138.904 12.4065 139.119 12.3171 139.369 12.3171C139.608 12.3171 139.811 12.4065 139.978 12.5854C140.156 12.7524 140.246 12.9611 140.246 13.2115C140.246 13.45 140.156 13.6587 139.978 13.8376C139.811 14.0046 139.608 14.0881 139.369 14.0881ZM138.797 25V16.2347H139.942V25H138.797ZM142.863 28.8639L144.885 24.356L141.2 16.2347H142.47L145.439 22.9965H145.475L148.319 16.2347H149.571L144.044 28.8639H142.863ZM151.03 25V12.1919H155.18C155.729 12.1919 156.241 12.2813 156.718 12.4602C157.207 12.6391 157.631 12.8955 157.989 13.2294C158.346 13.5514 158.627 13.9449 158.829 14.41C159.044 14.8632 159.151 15.3701 159.151 15.9306C159.151 16.4911 159.044 17.0039 158.829 17.469C158.627 17.9221 158.346 18.3157 157.989 18.6496C157.631 18.9716 157.207 19.222 156.718 19.4009C156.241 19.5798 155.729 19.6692 155.18 19.6692H152.175V25H151.03ZM155.234 18.5781C155.627 18.5781 155.991 18.5125 156.325 18.3813C156.659 18.2382 156.945 18.0474 157.184 17.8088C157.434 17.5703 157.631 17.2901 157.774 16.9681C157.917 16.6461 157.989 16.3003 157.989 15.9306C157.989 15.5609 157.917 15.215 157.774 14.893C157.631 14.5591 157.434 14.2789 157.184 14.0523C156.945 13.8138 156.659 13.6289 156.325 13.4977C155.991 13.3546 155.627 13.2831 155.234 13.2831H152.175V18.5781H155.234ZM166.291 23.4437H166.219C165.921 23.9565 165.504 24.3918 164.967 24.7496C164.442 25.1073 163.828 25.2862 163.124 25.2862C162.647 25.2862 162.206 25.2087 161.801 25.0537C161.395 24.9106 161.043 24.7138 160.745 24.4633C160.447 24.201 160.215 23.8909 160.048 23.5331C159.881 23.1754 159.797 22.7878 159.797 22.3704C159.797 21.8934 159.893 21.47 160.083 21.1003C160.286 20.7306 160.555 20.4206 160.888 20.1701C161.234 19.9197 161.628 19.7348 162.069 19.6156C162.522 19.4844 162.999 19.4188 163.5 19.4188C164.096 19.4188 164.633 19.4904 165.11 19.6335C165.587 19.7647 165.981 19.9197 166.291 20.0986V19.5619C166.291 19.1684 166.219 18.8106 166.076 18.4886C165.933 18.1666 165.742 17.8923 165.504 17.6657C165.265 17.4392 164.979 17.2662 164.645 17.147C164.323 17.0277 163.983 16.9681 163.625 16.9681C163.089 16.9681 162.612 17.0873 162.194 17.3259C161.777 17.5524 161.431 17.8864 161.157 18.3276L160.155 17.7015C160.501 17.1649 160.972 16.7415 161.568 16.4314C162.164 16.1094 162.838 15.9484 163.59 15.9484C164.174 15.9484 164.699 16.0379 165.164 16.2168C165.629 16.3837 166.028 16.6282 166.362 16.9502C166.696 17.2603 166.953 17.6359 167.132 18.0772C167.31 18.5065 167.4 18.9895 167.4 19.5261V25H166.291V23.4437ZM166.291 21.1003C165.933 20.8857 165.539 20.7127 165.11 20.5816C164.693 20.4384 164.216 20.3669 163.679 20.3669C163.285 20.3669 162.922 20.4146 162.588 20.51C162.266 20.6054 161.98 20.7426 161.729 20.9214C161.491 21.0884 161.3 21.2971 161.157 21.5475C161.026 21.798 160.96 22.0782 160.96 22.3883C160.96 22.6745 161.02 22.9369 161.139 23.1754C161.27 23.402 161.443 23.5987 161.658 23.7657C161.872 23.9207 162.111 24.0459 162.373 24.1414C162.647 24.2248 162.928 24.2666 163.214 24.2666C163.607 24.2666 163.989 24.1831 164.359 24.0161C164.728 23.8492 165.056 23.6226 165.343 23.3364C165.629 23.0382 165.855 22.6984 166.022 22.3167C166.201 21.9351 166.291 21.5296 166.291 21.1003ZM169.888 28.8639L171.909 24.356L168.224 16.2347H169.494L172.464 22.9965H172.5L175.344 16.2347H176.596L171.069 28.8639H169.888ZM177.751 16.2347H178.824V17.8804H178.896C179.015 17.618 179.176 17.3736 179.379 17.147C179.581 16.9085 179.808 16.6998 180.058 16.5209C180.321 16.342 180.601 16.2049 180.899 16.1094C181.209 16.0021 181.525 15.9484 181.847 15.9484C182.575 15.9484 183.171 16.1393 183.636 16.5209C184.101 16.9025 184.417 17.3855 184.584 17.9698C184.87 17.3974 185.282 16.9204 185.818 16.5388C186.355 16.1452 186.999 15.9484 187.75 15.9484C188.275 15.9484 188.722 16.0379 189.092 16.2168C189.474 16.3837 189.784 16.6222 190.022 16.9323C190.273 17.2424 190.451 17.6121 190.559 18.0414C190.678 18.4707 190.738 18.9358 190.738 19.4367V25H189.593V19.6335C189.593 18.7629 189.426 18.107 189.092 17.6657C188.758 17.2126 188.215 16.986 187.464 16.986C187.071 16.986 186.707 17.0814 186.373 17.2722C186.051 17.4511 185.771 17.6956 185.532 18.0056C185.306 18.3038 185.127 18.6556 184.995 19.061C184.876 19.4546 184.817 19.866 184.817 20.2953V25H183.672V19.6692C183.672 18.7748 183.499 18.107 183.153 17.6657C182.819 17.2126 182.288 16.986 181.561 16.986C181.155 16.986 180.786 17.0814 180.452 17.2722C180.13 17.463 179.85 17.7194 179.611 18.0414C179.384 18.3634 179.206 18.7331 179.074 19.1505C178.955 19.556 178.896 19.9793 178.896 20.4206V25H177.751V16.2347ZM200.466 22.9249C200.311 23.2469 200.114 23.551 199.875 23.8373C199.637 24.1235 199.357 24.3739 199.035 24.5886C198.725 24.8032 198.367 24.9702 197.961 25.0894C197.556 25.2206 197.109 25.2862 196.62 25.2862C195.988 25.2862 195.403 25.1729 194.867 24.9463C194.33 24.7078 193.865 24.3799 193.471 23.9625C193.09 23.5451 192.792 23.0561 192.577 22.4956C192.362 21.9232 192.255 21.2971 192.255 20.6173C192.255 19.9853 192.35 19.389 192.541 18.8285C192.744 18.2561 193.03 17.7611 193.4 17.3437C193.77 16.9144 194.217 16.5745 194.741 16.3241C195.266 16.0737 195.857 15.9484 196.512 15.9484C197.144 15.9484 197.711 16.0617 198.212 16.2883C198.725 16.503 199.16 16.8131 199.518 17.2185C199.875 17.6121 200.15 18.0891 200.341 18.6496C200.543 19.2101 200.645 19.8302 200.645 20.51C200.645 20.5458 200.645 20.5816 200.645 20.6173C200.633 20.6531 200.627 20.6829 200.627 20.7068V20.8141H193.418C193.43 21.4223 193.537 21.9411 193.74 22.3704C193.942 22.7997 194.199 23.1575 194.509 23.4437C194.819 23.718 195.165 23.9207 195.546 24.0519C195.928 24.1831 196.298 24.2487 196.656 24.2487C197.395 24.2487 197.979 24.0817 198.409 23.7478C198.838 23.402 199.196 22.9667 199.482 22.442L200.466 22.9249ZM199.446 19.8481C199.434 19.5619 199.375 19.2518 199.267 18.9179C199.16 18.584 198.993 18.2739 198.766 17.9877C198.54 17.7015 198.236 17.463 197.854 17.2722C197.484 17.0814 197.025 16.986 196.477 16.986C196.119 16.986 195.773 17.0516 195.439 17.1828C195.105 17.302 194.801 17.4809 194.527 17.7194C194.264 17.9579 194.038 18.2561 193.847 18.6138C193.668 18.9716 193.549 19.383 193.489 19.8481H199.446ZM203.316 17.8804H203.387C203.53 17.618 203.703 17.3736 203.906 17.147C204.109 16.9085 204.341 16.6998 204.604 16.5209C204.878 16.342 205.176 16.2049 205.498 16.1094C205.82 16.0021 206.166 15.9484 206.536 15.9484C207.072 15.9484 207.543 16.0379 207.949 16.2168C208.354 16.3837 208.688 16.6282 208.951 16.9502C209.225 17.2603 209.428 17.6359 209.559 18.0772C209.69 18.5065 209.756 18.9835 209.756 19.5082V25H208.611V19.705C208.611 18.7629 208.402 18.0772 207.985 17.6479C207.567 17.2066 206.983 16.986 206.232 16.986C205.814 16.986 205.433 17.0814 205.087 17.2722C204.741 17.4511 204.443 17.7015 204.192 18.0235C203.942 18.3336 203.745 18.6913 203.602 19.0968C203.459 19.5023 203.387 19.9256 203.387 20.3669V25H202.242V16.2347H203.316V17.8804ZM212.345 17.2722H210.753V16.2347H212.345V13.5514H213.49V16.2347H215.672V17.2722H213.49V22.5493C213.49 23.0621 213.615 23.4437 213.866 23.6941C214.104 23.9565 214.39 24.0877 214.724 24.0877C214.903 24.0877 215.052 24.0758 215.172 24.0519C215.303 24.0161 215.446 23.9625 215.601 23.8909L215.959 24.8748C215.756 24.9702 215.547 25.0358 215.333 25.0716C215.13 25.1193 214.885 25.1431 214.599 25.1431C213.979 25.1431 213.454 24.9463 213.025 24.5528C212.81 24.3501 212.643 24.1056 212.524 23.8194C212.405 23.5212 212.345 23.1635 212.345 22.7461V17.2722ZM220.639 25.2862C220.162 25.2862 219.721 25.2147 219.316 25.0716C218.922 24.9404 218.57 24.7615 218.26 24.5349C217.962 24.2964 217.7 24.0281 217.473 23.7299C217.258 23.4199 217.091 23.0979 216.972 22.7639L217.992 22.3346C218.23 22.9667 218.588 23.4497 219.065 23.7836C219.554 24.1056 220.079 24.2666 220.639 24.2666C221.343 24.2666 221.897 24.1115 222.303 23.8015C222.708 23.4914 222.911 23.1217 222.911 22.6924C222.911 22.5135 222.881 22.3465 222.822 22.1915C222.762 22.0365 222.655 21.8934 222.5 21.7622C222.345 21.6191 222.136 21.4939 221.874 21.3865C221.611 21.2673 221.277 21.1599 220.872 21.0645L219.655 20.7783C219.381 20.7068 219.095 20.6173 218.797 20.51C218.511 20.3907 218.248 20.2417 218.01 20.0628C217.771 19.872 217.574 19.6454 217.419 19.383C217.276 19.1207 217.205 18.8166 217.205 18.4707C217.205 18.0652 217.294 17.7075 217.473 17.3974C217.664 17.0873 217.914 16.825 218.224 16.6103C218.546 16.3957 218.91 16.2347 219.316 16.1273C219.721 16.0081 220.138 15.9484 220.568 15.9484C220.937 15.9484 221.295 15.9962 221.641 16.0916C221.987 16.175 222.303 16.3003 222.589 16.4672C222.887 16.6342 223.15 16.8488 223.376 17.1112C223.603 17.3616 223.782 17.6538 223.913 17.9877L222.911 18.3992C222.673 17.8983 222.345 17.5346 221.927 17.308C221.522 17.0814 221.051 16.9681 220.514 16.9681C220.252 16.9681 219.989 17.0039 219.727 17.0754C219.477 17.1351 219.25 17.2305 219.047 17.3616C218.845 17.4809 218.678 17.6359 218.546 17.8267C218.427 18.0056 218.367 18.2084 218.367 18.4349C218.367 18.8046 218.523 19.0909 218.833 19.2936C219.155 19.4963 219.602 19.6692 220.174 19.8124L221.462 20.1343C222.357 20.3609 223.013 20.6889 223.43 21.1182C223.859 21.5356 224.074 22.0305 224.074 22.6029C224.074 22.9726 223.99 23.3185 223.823 23.6405C223.668 23.9625 223.436 24.2487 223.126 24.4991C222.828 24.7376 222.464 24.9284 222.035 25.0716C221.617 25.2147 221.152 25.2862 220.639 25.2862ZM229.809 12.1919H230.954V16.5388L230.882 17.7552H230.954C231.097 17.5167 231.27 17.2901 231.472 17.0754C231.675 16.8488 231.914 16.6521 232.188 16.4851C232.462 16.3181 232.772 16.187 233.118 16.0916C233.464 15.9962 233.846 15.9484 234.263 15.9484C234.824 15.9484 235.354 16.0677 235.855 16.3062C236.356 16.5328 236.791 16.8548 237.161 17.2722C237.543 17.6777 237.841 18.1666 238.055 18.739C238.282 19.3115 238.395 19.9376 238.395 20.6173C238.395 21.2971 238.282 21.9232 238.055 22.4956C237.841 23.068 237.543 23.563 237.161 23.9804C236.791 24.3858 236.356 24.7078 235.855 24.9463C235.354 25.1729 234.824 25.2862 234.263 25.2862C233.846 25.2862 233.464 25.2325 233.118 25.1252C232.772 25.0298 232.462 24.8986 232.188 24.7317C231.914 24.5647 231.675 24.3739 231.472 24.1592C231.27 23.9327 231.097 23.7001 230.954 23.4616H230.882V25H229.809V12.1919ZM234.066 24.2487C234.484 24.2487 234.883 24.1652 235.265 23.9982C235.658 23.8313 235.998 23.5928 236.284 23.2827C236.583 22.9726 236.815 22.591 236.982 22.1378C237.161 21.6847 237.25 21.1778 237.25 20.6173C237.25 20.0568 237.161 19.556 236.982 19.1147C236.815 18.6615 236.583 18.2799 236.284 17.9698C235.998 17.6479 235.658 17.4034 235.265 17.2364C234.883 17.0695 234.484 16.986 234.066 16.986C233.649 16.986 233.243 17.0695 232.85 17.2364C232.468 17.3915 232.128 17.624 231.83 17.9341C231.544 18.2441 231.311 18.6258 231.133 19.0789C230.966 19.5321 230.882 20.0449 230.882 20.6173C230.882 21.1898 230.966 21.7026 231.133 22.1557C231.311 22.597 231.544 22.9786 231.83 23.3006C232.128 23.6107 232.468 23.8492 232.85 24.0161C233.243 24.1712 233.649 24.2487 234.066 24.2487ZM240.324 28.8639L242.345 24.356L238.66 16.2347H239.93L242.9 22.9965H242.935L245.78 16.2347H247.032L241.504 28.8639H240.324ZM252.611 25V12.1919H257.047C257.62 12.1919 258.157 12.2873 258.657 12.4781C259.17 12.6689 259.617 12.9372 259.999 13.2831C260.381 13.6289 260.679 14.0463 260.893 14.5353C261.12 15.0123 261.233 15.543 261.233 16.1273C261.233 16.6998 261.12 17.2305 260.893 17.7194C260.679 18.1964 260.381 18.6079 259.999 18.9537C259.617 19.2996 259.17 19.5679 258.657 19.7587C258.157 19.9495 257.62 20.0449 257.047 20.0449H254.633V25H252.611ZM257.101 18.113C257.435 18.113 257.733 18.0593 257.996 17.952C258.258 17.8327 258.479 17.6777 258.657 17.4869C258.836 17.296 258.973 17.0814 259.069 16.8429C259.164 16.6044 259.212 16.3658 259.212 16.1273C259.212 15.8769 259.164 15.6324 259.069 15.3939C258.973 15.1554 258.836 14.9467 258.657 14.7678C258.479 14.577 258.258 14.422 257.996 14.3027C257.733 14.1835 257.435 14.1238 257.101 14.1238H254.633V18.113H257.101ZM262.667 16.2347H264.545V17.5584H264.652C264.76 17.3318 264.903 17.1231 265.082 16.9323C265.272 16.7296 265.481 16.5626 265.708 16.4314C265.946 16.2883 266.191 16.181 266.441 16.1094C266.703 16.026 266.954 15.9842 267.192 15.9842C267.479 15.9842 267.723 16.0081 267.926 16.0558C268.129 16.1035 268.313 16.1691 268.48 16.2526L267.908 18.0951C267.777 18.0354 267.628 17.9937 267.461 17.9698C267.306 17.9341 267.115 17.9162 266.888 17.9162C266.566 17.9162 266.268 17.9818 265.994 18.113C265.732 18.2441 265.499 18.423 265.296 18.6496C265.094 18.8762 264.933 19.1445 264.813 19.4546C264.706 19.7647 264.652 20.0926 264.652 20.4384V25H262.667V16.2347ZM270.694 14.6784C270.313 14.6784 269.991 14.5472 269.728 14.2848C269.478 14.0225 269.353 13.7064 269.353 13.3367C269.353 12.967 269.478 12.651 269.728 12.3887C269.991 12.1263 270.313 11.9951 270.694 11.9951C271.064 11.9951 271.374 12.1263 271.625 12.3887C271.887 12.651 272.018 12.967 272.018 13.3367C272.018 13.7064 271.887 14.0225 271.625 14.2848C271.374 14.5472 271.064 14.6784 270.694 14.6784ZM269.693 25V16.2347H271.678V25H269.693ZM276.549 24.4991L272.899 16.2347H275.117L277.532 22.0484H277.622L279.965 16.2347H282.165L276.674 28.8639H274.563L276.549 24.4991ZM288.337 23.9267H288.229C287.967 24.2725 287.627 24.5886 287.21 24.8748C286.792 25.1491 286.262 25.2862 285.618 25.2862C285.152 25.2862 284.717 25.2087 284.312 25.0537C283.906 24.9106 283.554 24.7078 283.256 24.4455C282.958 24.1712 282.72 23.8551 282.541 23.4974C282.374 23.1277 282.29 22.7222 282.29 22.281C282.29 21.8159 282.38 21.3985 282.559 21.0288C282.749 20.6591 283.006 20.349 283.328 20.0986C283.662 19.8481 284.055 19.6573 284.508 19.5261C284.962 19.383 285.451 19.3115 285.975 19.3115C286.56 19.3115 287.049 19.3711 287.442 19.4904C287.836 19.5977 288.134 19.6991 288.337 19.7945V19.4546C288.337 19.1922 288.277 18.9477 288.158 18.7212C288.05 18.4946 287.895 18.3038 287.693 18.1487C287.502 17.9818 287.281 17.8566 287.031 17.7731C286.78 17.6777 286.518 17.63 286.244 17.63C285.802 17.63 285.403 17.7194 285.045 17.8983C284.699 18.0652 284.389 18.3395 284.115 18.7212L282.541 17.6836C282.958 17.1112 283.477 16.6819 284.097 16.3957C284.717 16.0975 285.421 15.9484 286.208 15.9484C287.508 15.9484 288.509 16.2704 289.213 16.9144C289.929 17.5584 290.286 18.4767 290.286 19.6692V25H288.337V23.9267ZM288.337 21.3508C288.074 21.1957 287.782 21.0705 287.46 20.9751C287.138 20.8797 286.768 20.832 286.351 20.832C285.731 20.832 285.236 20.9751 284.866 21.2613C284.497 21.5475 284.312 21.8934 284.312 22.2988C284.312 22.5135 284.359 22.7043 284.455 22.8713C284.55 23.0263 284.669 23.1635 284.813 23.2827C284.968 23.402 285.14 23.4914 285.331 23.551C285.534 23.6107 285.737 23.6405 285.94 23.6405C286.262 23.6405 286.566 23.5809 286.852 23.4616C287.15 23.3304 287.406 23.1635 287.621 22.9607C287.836 22.7461 288.009 22.5016 288.14 22.2273C288.271 21.953 288.337 21.6608 288.337 21.3508ZM292.155 16.2347H294.033V17.5584H294.14C294.248 17.3318 294.391 17.1231 294.57 16.9323C294.76 16.7296 294.969 16.5626 295.196 16.4314C295.434 16.2883 295.679 16.181 295.929 16.1094C296.191 16.026 296.442 15.9842 296.68 15.9842C296.967 15.9842 297.211 16.0081 297.414 16.0558C297.617 16.1035 297.801 16.1691 297.968 16.2526L297.396 18.0951C297.265 18.0354 297.116 17.9937 296.949 17.9698C296.794 17.9341 296.603 17.9162 296.376 17.9162C296.054 17.9162 295.756 17.9818 295.482 18.113C295.22 18.2441 294.987 18.423 294.784 18.6496C294.581 18.8762 294.42 19.1445 294.301 19.4546C294.194 19.7647 294.14 20.0926 294.14 20.4384V25H292.155V16.2347ZM300.182 14.6784C299.801 14.6784 299.479 14.5472 299.216 14.2848C298.966 14.0225 298.841 13.7064 298.841 13.3367C298.841 12.967 298.966 12.651 299.216 12.3887C299.479 12.1263 299.801 11.9951 300.182 11.9951C300.552 11.9951 300.862 12.1263 301.113 12.3887C301.375 12.651 301.506 12.967 301.506 13.3367C301.506 13.7064 301.375 14.0225 301.113 14.2848C300.862 14.5472 300.552 14.6784 300.182 14.6784ZM299.181 25V16.2347H301.166V25H299.181ZM304.196 17.9877H302.658V16.2347H304.196V13.5514H306.182V16.2347H308.346V17.9877H306.182V21.8874C306.182 22.1021 306.206 22.2988 306.253 22.4777C306.301 22.6566 306.372 22.8057 306.468 22.9249C306.671 23.1515 306.927 23.2648 307.237 23.2648C307.428 23.2648 307.577 23.2529 307.684 23.229C307.792 23.1933 307.905 23.1456 308.024 23.0859L308.632 24.839C308.382 24.9344 308.12 25.006 307.845 25.0537C307.571 25.1133 307.261 25.1431 306.915 25.1431C306.498 25.1431 306.128 25.0775 305.806 24.9463C305.484 24.8152 305.204 24.6363 304.965 24.4097C304.452 23.8969 304.196 23.1992 304.196 22.3167V17.9877ZM311.223 14.6784C310.841 14.6784 310.519 14.5472 310.257 14.2848C310.006 14.0225 309.881 13.7064 309.881 13.3367C309.881 12.967 310.006 12.651 310.257 12.3887C310.519 12.1263 310.841 11.9951 311.223 11.9951C311.593 11.9951 311.903 12.1263 312.153 12.3887C312.415 12.651 312.547 12.967 312.547 13.3367C312.547 13.7064 312.415 14.0225 312.153 14.2848C311.903 14.5472 311.593 14.6784 311.223 14.6784ZM310.221 25V16.2347H312.207V25H310.221ZM322.392 22.9071C322.022 23.5868 321.498 24.1533 320.818 24.6065C320.138 25.0596 319.303 25.2862 318.313 25.2862C317.657 25.2862 317.049 25.1729 316.489 24.9463C315.94 24.7078 315.463 24.3799 315.058 23.9625C314.652 23.5451 314.336 23.0561 314.11 22.4956C313.883 21.9232 313.77 21.2971 313.77 20.6173C313.77 19.9853 313.877 19.389 314.092 18.8285C314.306 18.2561 314.605 17.7611 314.986 17.3437C315.38 16.9144 315.851 16.5745 316.399 16.3241C316.948 16.0737 317.556 15.9484 318.224 15.9484C318.904 15.9484 319.506 16.0617 320.031 16.2883C320.567 16.5149 321.021 16.8309 321.39 17.2364C321.76 17.6419 322.04 18.1308 322.231 18.7033C322.434 19.2757 322.535 19.9018 322.535 20.5816C322.535 20.6412 322.535 20.6948 322.535 20.7426C322.523 20.8022 322.517 20.8558 322.517 20.9035C322.505 20.9513 322.499 20.999 322.499 21.0467H315.755C315.791 21.4641 315.892 21.8278 316.059 22.1378C316.226 22.4479 316.429 22.7043 316.668 22.9071C316.918 23.1098 317.192 23.2589 317.491 23.3543C317.789 23.4497 318.081 23.4974 318.367 23.4974C318.939 23.4974 319.411 23.3602 319.78 23.0859C320.15 22.8116 320.454 22.4718 320.693 22.0663L322.392 22.9071ZM320.549 19.5261C320.526 19.3473 320.466 19.1505 320.371 18.9358C320.287 18.7092 320.15 18.5065 319.959 18.3276C319.78 18.1368 319.542 17.9758 319.244 17.8446C318.957 17.7134 318.606 17.6479 318.188 17.6479C317.616 17.6479 317.121 17.8208 316.703 18.1666C316.298 18.5005 316.024 18.9537 315.881 19.5261H320.549ZM327.45 25.2862C326.914 25.2862 326.431 25.2147 326.002 25.0716C325.572 24.9284 325.197 24.7436 324.875 24.517C324.553 24.2785 324.278 24.0102 324.052 23.712C323.837 23.4139 323.67 23.1038 323.551 22.7818L325.34 22.0305C325.542 22.5433 325.835 22.9249 326.216 23.1754C326.598 23.4139 327.009 23.5331 327.45 23.5331C327.951 23.5331 328.345 23.4318 328.631 23.229C328.917 23.0263 329.06 22.7997 329.06 22.5493C329.06 22.2988 328.953 22.0842 328.738 21.9053C328.524 21.7145 328.118 21.5475 327.522 21.4044L326.27 21.1003C325.996 21.0407 325.715 20.9513 325.429 20.832C325.155 20.7008 324.898 20.5398 324.66 20.349C324.421 20.1463 324.225 19.9078 324.07 19.6335C323.926 19.3473 323.855 19.0133 323.855 18.6317C323.855 18.2024 323.944 17.8208 324.123 17.4869C324.314 17.1529 324.57 16.8727 324.892 16.6461C325.214 16.4195 325.584 16.2466 326.002 16.1273C326.431 16.0081 326.884 15.9484 327.361 15.9484C327.755 15.9484 328.13 15.9902 328.488 16.0737C328.858 16.1571 329.198 16.2824 329.508 16.4493C329.818 16.6163 330.092 16.8309 330.331 17.0933C330.581 17.3437 330.778 17.6419 330.921 17.9877L329.168 18.7212C329.001 18.3395 328.738 18.0652 328.381 17.8983C328.023 17.7194 327.659 17.63 327.289 17.63C327.123 17.63 326.95 17.6538 326.771 17.7015C326.604 17.7373 326.449 17.7969 326.306 17.8804C326.174 17.952 326.061 18.0474 325.966 18.1666C325.882 18.2859 325.841 18.4171 325.841 18.5602C325.841 18.7987 325.942 18.9895 326.145 19.1326C326.359 19.2638 326.681 19.383 327.111 19.4904L328.452 19.8302C329.359 20.0568 330.02 20.4027 330.438 20.8678C330.867 21.3209 331.082 21.8576 331.082 22.4777C331.082 22.8594 330.992 23.2171 330.814 23.551C330.647 23.885 330.402 24.1831 330.08 24.4455C329.758 24.7078 329.371 24.9106 328.917 25.0537C328.476 25.2087 327.987 25.2862 327.45 25.2862ZM100.424 40.2918H106.452C106.476 40.4349 106.494 40.5781 106.506 40.7212C106.518 40.8523 106.524 40.9895 106.524 41.1326C106.524 41.8958 106.404 42.6471 106.166 43.3865C105.927 44.114 105.54 44.7699 105.003 45.3543C104.431 45.9625 103.751 46.4395 102.964 46.7853C102.189 47.1193 101.306 47.2862 100.316 47.2862C99.3981 47.2862 98.5395 47.1193 97.7404 46.7853C96.9414 46.4395 96.2438 45.9684 95.6475 45.3722C95.0512 44.7639 94.5801 44.0544 94.2343 43.2434C93.8885 42.4325 93.7155 41.55 93.7155 40.5959C93.7155 39.6538 93.8885 38.7773 94.2343 37.9663C94.5801 37.1435 95.0512 36.4339 95.6475 35.8376C96.2438 35.2294 96.9414 34.7583 97.7404 34.4244C98.5395 34.0786 99.3981 33.9057 100.316 33.9057C101.258 33.9057 102.135 34.0726 102.946 34.4065C103.757 34.7285 104.431 35.1936 104.967 35.8018L104.127 36.6426C103.685 36.1059 103.137 35.7005 102.481 35.4262C101.825 35.14 101.109 34.9969 100.334 34.9969C99.6187 34.9969 98.927 35.134 98.2592 35.4083C97.6033 35.6707 97.0249 36.0463 96.524 36.5353C96.0231 37.0242 95.6236 37.6145 95.3255 38.3062C95.0274 38.986 94.8783 39.7492 94.8783 40.5959C94.8783 41.4427 95.0274 42.2119 95.3255 42.9035C95.6356 43.5833 96.041 44.1677 96.5419 44.6566C97.0428 45.1456 97.6212 45.5272 98.2771 45.8015C98.933 46.0638 99.6187 46.195 100.334 46.195C101.264 46.195 102.046 46.04 102.678 45.7299C103.322 45.4199 103.84 45.0382 104.234 44.5851C104.627 44.1319 104.908 43.6429 105.075 43.1182C105.254 42.5935 105.355 42.0091 105.379 41.3651H100.424V40.2918ZM112.14 37.9484C112.784 37.9484 113.374 38.0677 113.911 38.3062C114.46 38.5447 114.931 38.8727 115.324 39.2901C115.718 39.7075 116.022 40.2024 116.237 40.7748C116.463 41.3353 116.576 41.9495 116.576 42.6173C116.576 43.2852 116.463 43.9053 116.237 44.4777C116.022 45.0382 115.718 45.5272 115.324 45.9446C114.931 46.362 114.46 46.6899 113.911 46.9284C113.374 47.167 112.784 47.2862 112.14 47.2862C111.508 47.2862 110.918 47.167 110.369 46.9284C109.832 46.6899 109.367 46.362 108.974 45.9446C108.58 45.5272 108.27 45.0382 108.044 44.4777C107.829 43.9053 107.722 43.2852 107.722 42.6173C107.722 41.9495 107.829 41.3353 108.044 40.7748C108.27 40.2024 108.58 39.7075 108.974 39.2901C109.367 38.8727 109.832 38.5447 110.369 38.3062C110.918 38.0677 111.508 37.9484 112.14 37.9484ZM112.14 46.2487C112.569 46.2487 112.981 46.1652 113.374 45.9982C113.768 45.8194 114.114 45.5749 114.412 45.2648C114.722 44.9428 114.966 44.5612 115.145 44.12C115.336 43.6668 115.432 43.1659 115.432 42.6173C115.432 42.0688 115.336 41.5738 115.145 41.1326C114.966 40.6794 114.722 40.2978 114.412 39.9877C114.114 39.6657 113.768 39.4213 113.374 39.2543C112.981 39.0754 112.569 38.986 112.14 38.986C111.711 38.986 111.299 39.0754 110.906 39.2543C110.512 39.4213 110.16 39.6657 109.85 39.9877C109.552 40.2978 109.314 40.6794 109.135 41.1326C108.956 41.5738 108.866 42.0688 108.866 42.6173C108.866 43.1659 108.956 43.6668 109.135 44.12C109.314 44.5612 109.552 44.9428 109.85 45.2648C110.16 45.5749 110.512 45.8194 110.906 45.9982C111.299 46.1652 111.711 46.2487 112.14 46.2487ZM119.062 39.8804H119.133C119.277 39.618 119.449 39.3736 119.652 39.147C119.855 38.9085 120.088 38.6998 120.35 38.5209C120.624 38.342 120.922 38.2049 121.244 38.1094C121.566 38.0021 121.912 37.9484 122.282 37.9484C122.818 37.9484 123.29 38.0379 123.695 38.2168C124.1 38.3837 124.434 38.6282 124.697 38.9502C124.971 39.2603 125.174 39.6359 125.305 40.0772C125.436 40.5065 125.502 40.9835 125.502 41.5082V47H124.357V41.705C124.357 40.7629 124.148 40.0772 123.731 39.6479C123.313 39.2066 122.729 38.986 121.978 38.986C121.56 38.986 121.179 39.0814 120.833 39.2722C120.487 39.4511 120.189 39.7015 119.938 40.0235C119.688 40.3336 119.491 40.6913 119.348 41.0968C119.205 41.5023 119.133 41.9256 119.133 42.3669V47H117.989V38.2347H119.062V39.8804ZM133.431 45.4437H133.36C133.062 45.9565 132.644 46.3918 132.107 46.7496C131.583 47.1073 130.969 47.2862 130.265 47.2862C129.788 47.2862 129.347 47.2087 128.941 47.0537C128.536 46.9106 128.184 46.7138 127.886 46.4633C127.588 46.201 127.355 45.8909 127.188 45.5331C127.021 45.1754 126.938 44.7878 126.938 44.3704C126.938 43.8934 127.033 43.47 127.224 43.1003C127.427 42.7306 127.695 42.4206 128.029 42.1701C128.375 41.9197 128.768 41.7348 129.21 41.6156C129.663 41.4844 130.14 41.4188 130.641 41.4188C131.237 41.4188 131.774 41.4904 132.251 41.6335C132.728 41.7647 133.121 41.9197 133.431 42.0986V41.5619C133.431 41.1684 133.36 40.8106 133.217 40.4886C133.073 40.1666 132.883 39.8923 132.644 39.6657C132.406 39.4392 132.119 39.2662 131.785 39.147C131.463 39.0277 131.124 38.9681 130.766 38.9681C130.229 38.9681 129.752 39.0873 129.335 39.3259C128.917 39.5524 128.572 39.8864 128.297 40.3276L127.295 39.7015C127.641 39.1649 128.112 38.7415 128.709 38.4314C129.305 38.1094 129.979 37.9484 130.73 37.9484C131.314 37.9484 131.839 38.0379 132.304 38.2168C132.769 38.3837 133.169 38.6282 133.503 38.9502C133.837 39.2603 134.093 39.6359 134.272 40.0772C134.451 40.5065 134.54 40.9895 134.54 41.5261V47H133.431V45.4437ZM133.431 43.1003C133.073 42.8857 132.68 42.7127 132.251 42.5816C131.833 42.4384 131.356 42.3669 130.82 42.3669C130.426 42.3669 130.062 42.4146 129.728 42.51C129.406 42.6054 129.12 42.7426 128.87 42.9214C128.631 43.0884 128.44 43.2971 128.297 43.5475C128.166 43.798 128.1 44.0782 128.1 44.3883C128.1 44.6745 128.16 44.9369 128.279 45.1754C128.411 45.402 128.583 45.5987 128.798 45.7657C129.013 45.9207 129.251 46.0459 129.514 46.1414C129.788 46.2248 130.068 46.2666 130.354 46.2666C130.748 46.2666 131.13 46.1831 131.499 46.0161C131.869 45.8492 132.197 45.6226 132.483 45.3364C132.769 45.0382 132.996 44.6984 133.163 44.3167C133.342 43.9351 133.431 43.5296 133.431 43.1003ZM135.365 38.2347H136.581L139.569 45.712H139.604L142.61 38.2347H143.808L140.195 47H138.943L135.365 38.2347ZM152.386 47.2862C151.921 47.2862 151.462 47.2087 151.009 47.0537C150.556 46.9106 150.132 46.6959 149.739 46.4097C149.345 46.1115 148.993 45.7478 148.683 45.3185C148.385 44.8892 148.164 44.3943 148.021 43.8337L149.095 43.3865C149.202 43.792 149.357 44.1677 149.56 44.5135C149.774 44.8594 150.025 45.1575 150.311 45.4079C150.597 45.6584 150.919 45.8551 151.277 45.9982C151.635 46.1294 152.016 46.195 152.422 46.195C152.815 46.195 153.191 46.1414 153.549 46.034C153.907 45.9148 154.217 45.7478 154.479 45.5331C154.753 45.3066 154.968 45.0382 155.123 44.7282C155.278 44.4062 155.356 44.0484 155.356 43.6549C155.356 42.9751 155.105 42.4265 154.604 42.0091C154.103 41.5798 153.376 41.1982 152.422 40.8643L151.617 40.5781C151.235 40.4469 150.86 40.2918 150.49 40.113C150.12 39.9221 149.786 39.6956 149.488 39.4332C149.202 39.1708 148.969 38.8608 148.791 38.503C148.612 38.1333 148.522 37.704 148.522 37.215C148.522 36.7738 148.612 36.3504 148.791 35.9449C148.981 35.5395 149.244 35.1877 149.578 34.8895C149.912 34.5914 150.311 34.3529 150.776 34.174C151.241 33.9951 151.748 33.9057 152.297 33.9057C152.881 33.9057 153.394 33.9951 153.835 34.174C154.276 34.3409 154.652 34.5556 154.962 34.818C155.284 35.0684 155.534 35.3427 155.713 35.6408C155.904 35.939 156.041 36.2133 156.125 36.4637L155.051 36.9109C154.992 36.6963 154.89 36.4816 154.747 36.2669C154.616 36.0404 154.437 35.8317 154.211 35.6408C153.984 35.45 153.716 35.295 153.406 35.1757C153.096 35.0565 152.732 34.9969 152.315 34.9969C151.957 34.9969 151.617 35.0505 151.295 35.1579C150.985 35.2652 150.705 35.4202 150.454 35.623C150.216 35.8138 150.025 36.0463 149.882 36.3206C149.751 36.5949 149.685 36.893 149.685 37.215C149.685 37.5251 149.745 37.7994 149.864 38.0379C149.995 38.2645 150.174 38.4732 150.401 38.664C150.627 38.8429 150.895 39.0098 151.205 39.1649C151.516 39.308 151.855 39.4451 152.225 39.5763L153.048 39.8804C153.525 40.0474 153.972 40.2382 154.39 40.4528C154.819 40.6675 155.189 40.9239 155.499 41.222C155.809 41.5082 156.053 41.8481 156.232 42.2417C156.423 42.6352 156.518 43.0884 156.518 43.6012C156.518 44.2452 156.393 44.7997 156.143 45.2648C155.892 45.7299 155.57 46.1115 155.177 46.4097C154.783 46.7078 154.336 46.9284 153.835 47.0716C153.346 47.2147 152.863 47.2862 152.386 47.2862ZM158.253 38.2347H159.327V39.7552H159.398C159.541 39.5167 159.714 39.2901 159.917 39.0754C160.12 38.8488 160.358 38.6521 160.633 38.4851C160.907 38.3181 161.217 38.187 161.563 38.0916C161.909 37.9962 162.29 37.9484 162.708 37.9484C163.268 37.9484 163.799 38.0677 164.3 38.3062C164.801 38.5328 165.236 38.8548 165.606 39.2722C165.987 39.6777 166.285 40.1666 166.5 40.739C166.727 41.3115 166.84 41.9376 166.84 42.6173C166.84 43.2971 166.727 43.9232 166.5 44.4956C166.285 45.068 165.987 45.563 165.606 45.9804C165.236 46.3858 164.801 46.7078 164.3 46.9463C163.799 47.1729 163.268 47.2862 162.708 47.2862C162.29 47.2862 161.909 47.2325 161.563 47.1252C161.217 47.0298 160.907 46.8986 160.633 46.7317C160.358 46.5647 160.12 46.3739 159.917 46.1592C159.714 45.9327 159.541 45.7001 159.398 45.4616H159.327L159.398 46.678V50.8639H158.253V38.2347ZM162.511 46.2487C162.928 46.2487 163.328 46.1652 163.709 45.9982C164.103 45.8313 164.443 45.5928 164.729 45.2827C165.027 44.9726 165.26 44.591 165.427 44.1378C165.606 43.6847 165.695 43.1778 165.695 42.6173C165.695 42.0568 165.606 41.556 165.427 41.1147C165.26 40.6615 165.027 40.2799 164.729 39.9698C164.443 39.6479 164.103 39.4034 163.709 39.2364C163.328 39.0695 162.928 38.986 162.511 38.986C162.093 38.986 161.688 39.0695 161.294 39.2364C160.913 39.3915 160.573 39.624 160.275 39.9341C159.989 40.2441 159.756 40.6258 159.577 41.0789C159.41 41.5321 159.327 42.0449 159.327 42.6173C159.327 43.1898 159.41 43.7026 159.577 44.1557C159.756 44.597 159.989 44.9786 160.275 45.3006C160.573 45.6107 160.913 45.8492 161.294 46.0161C161.688 46.1712 162.093 46.2487 162.511 46.2487ZM174.396 45.4437H174.325C174.027 45.9565 173.609 46.3918 173.073 46.7496C172.548 47.1073 171.934 47.2862 171.23 47.2862C170.753 47.2862 170.312 47.2087 169.906 47.0537C169.501 46.9106 169.149 46.7138 168.851 46.4633C168.553 46.201 168.32 45.8909 168.153 45.5331C167.986 45.1754 167.903 44.7878 167.903 44.3704C167.903 43.8934 167.998 43.47 168.189 43.1003C168.392 42.7306 168.66 42.4206 168.994 42.1701C169.34 41.9197 169.734 41.7348 170.175 41.6156C170.628 41.4844 171.105 41.4188 171.606 41.4188C172.202 41.4188 172.739 41.4904 173.216 41.6335C173.693 41.7647 174.086 41.9197 174.396 42.0986V41.5619C174.396 41.1684 174.325 40.8106 174.182 40.4886C174.039 40.1666 173.848 39.8923 173.609 39.6657C173.371 39.4392 173.085 39.2662 172.751 39.147C172.429 39.0277 172.089 38.9681 171.731 38.9681C171.194 38.9681 170.717 39.0873 170.3 39.3259C169.883 39.5524 169.537 39.8864 169.262 40.3276L168.261 39.7015C168.607 39.1649 169.078 38.7415 169.674 38.4314C170.27 38.1094 170.944 37.9484 171.695 37.9484C172.28 37.9484 172.804 38.0379 173.269 38.2168C173.735 38.3837 174.134 38.6282 174.468 38.9502C174.802 39.2603 175.058 39.6359 175.237 40.0772C175.416 40.5065 175.506 40.9895 175.506 41.5261V47H174.396V45.4437ZM174.396 43.1003C174.039 42.8857 173.645 42.7127 173.216 42.5816C172.798 42.4384 172.321 42.3669 171.785 42.3669C171.391 42.3669 171.027 42.4146 170.694 42.51C170.372 42.6054 170.085 42.7426 169.835 42.9214C169.596 43.0884 169.406 43.2971 169.262 43.5475C169.131 43.798 169.066 44.0782 169.066 44.3883C169.066 44.6745 169.125 44.9369 169.245 45.1754C169.376 45.402 169.549 45.5987 169.763 45.7657C169.978 45.9207 170.217 46.0459 170.479 46.1414C170.753 46.2248 171.033 46.2666 171.32 46.2666C171.713 46.2666 172.095 46.1831 172.464 46.0161C172.834 45.8492 173.162 45.6226 173.448 45.3364C173.735 45.0382 173.961 44.6984 174.128 44.3167C174.307 43.9351 174.396 43.5296 174.396 43.1003ZM185.058 44.7818C184.902 45.1396 184.706 45.4735 184.467 45.7836C184.241 46.0817 183.972 46.3441 183.662 46.5707C183.352 46.7853 182.994 46.9583 182.589 47.0894C182.183 47.2206 181.736 47.2862 181.247 47.2862C180.615 47.2862 180.031 47.167 179.494 46.9284C178.958 46.6899 178.492 46.362 178.099 45.9446C177.717 45.5272 177.413 45.0382 177.187 44.4777C176.972 43.9053 176.865 43.2852 176.865 42.6173C176.865 41.9495 176.972 41.3353 177.187 40.7748C177.413 40.2024 177.717 39.7075 178.099 39.2901C178.492 38.8727 178.958 38.5447 179.494 38.3062C180.031 38.0677 180.615 37.9484 181.247 37.9484C181.736 37.9484 182.177 38.014 182.571 38.1452C182.977 38.2645 183.334 38.4374 183.644 38.664C183.966 38.8906 184.241 39.1529 184.467 39.4511C184.694 39.7492 184.879 40.0772 185.022 40.4349L184.002 40.8822C183.74 40.2739 183.376 39.8088 182.911 39.4869C182.446 39.1529 181.873 38.986 181.194 38.986C180.788 38.986 180.395 39.0754 180.013 39.2543C179.631 39.4213 179.291 39.6657 178.993 39.9877C178.695 40.2978 178.457 40.6794 178.278 41.1326C178.099 41.5738 178.009 42.0688 178.009 42.6173C178.009 43.1659 178.099 43.6668 178.278 44.12C178.457 44.5612 178.695 44.9428 178.993 45.2648C179.291 45.5749 179.631 45.8194 180.013 45.9982C180.395 46.1652 180.788 46.2487 181.194 46.2487C181.873 46.2487 182.452 46.0877 182.929 45.7657C183.406 45.4318 183.776 44.9607 184.038 44.3525L185.058 44.7818ZM194.159 44.9249C194.004 45.2469 193.808 45.551 193.569 45.8373C193.331 46.1235 193.05 46.3739 192.728 46.5886C192.418 46.8032 192.06 46.9702 191.655 47.0894C191.25 47.2206 190.802 47.2862 190.313 47.2862C189.681 47.2862 189.097 47.1729 188.56 46.9463C188.024 46.7078 187.559 46.3799 187.165 45.9625C186.783 45.5451 186.485 45.0561 186.271 44.4956C186.056 43.9232 185.949 43.2971 185.949 42.6173C185.949 41.9853 186.044 41.389 186.235 40.8285C186.438 40.2561 186.724 39.7611 187.093 39.3437C187.463 38.9144 187.91 38.5745 188.435 38.3241C188.96 38.0737 189.55 37.9484 190.206 37.9484C190.838 37.9484 191.405 38.0617 191.905 38.2883C192.418 38.503 192.854 38.8131 193.211 39.2185C193.569 39.6121 193.843 40.0891 194.034 40.6496C194.237 41.2101 194.338 41.8302 194.338 42.51C194.338 42.5458 194.338 42.5816 194.338 42.6173C194.326 42.6531 194.32 42.6829 194.32 42.7068V42.8141H187.111C187.123 43.4223 187.231 43.9411 187.433 44.3704C187.636 44.7997 187.892 45.1575 188.203 45.4437C188.513 45.718 188.858 45.9207 189.24 46.0519C189.622 46.1831 189.991 46.2487 190.349 46.2487C191.089 46.2487 191.673 46.0817 192.102 45.7478C192.532 45.402 192.889 44.9667 193.176 44.442L194.159 44.9249ZM193.14 41.8481C193.128 41.5619 193.068 41.2518 192.961 40.9179C192.854 40.584 192.687 40.2739 192.46 39.9877C192.233 39.7015 191.929 39.463 191.548 39.2722C191.178 39.0814 190.719 38.986 190.17 38.986C189.813 38.986 189.467 39.0516 189.133 39.1828C188.799 39.302 188.495 39.4809 188.22 39.7194C187.958 39.9579 187.731 40.2561 187.541 40.6138C187.362 40.9716 187.243 41.383 187.183 41.8481H193.14ZM199.082 47.2862C198.605 47.2862 198.164 47.2147 197.759 47.0716C197.365 46.9404 197.013 46.7615 196.703 46.5349C196.405 46.2964 196.143 46.0281 195.916 45.7299C195.701 45.4199 195.534 45.0979 195.415 44.7639L196.435 44.3346C196.673 44.9667 197.031 45.4497 197.508 45.7836C197.997 46.1056 198.522 46.2666 199.082 46.2666C199.786 46.2666 200.341 46.1115 200.746 45.8015C201.151 45.4914 201.354 45.1217 201.354 44.6924C201.354 44.5135 201.324 44.3465 201.265 44.1915C201.205 44.0365 201.098 43.8934 200.943 43.7622C200.788 43.6191 200.579 43.4939 200.317 43.3865C200.054 43.2673 199.72 43.1599 199.315 43.0645L198.098 42.7783C197.824 42.7068 197.538 42.6173 197.24 42.51C196.954 42.3907 196.691 42.2417 196.453 42.0628C196.214 41.872 196.017 41.6454 195.862 41.383C195.719 41.1207 195.648 40.8166 195.648 40.4707C195.648 40.0652 195.737 39.7075 195.916 39.3974C196.107 39.0873 196.357 38.825 196.667 38.6103C196.989 38.3957 197.353 38.2347 197.759 38.1273C198.164 38.0081 198.581 37.9484 199.011 37.9484C199.38 37.9484 199.738 37.9962 200.084 38.0916C200.43 38.175 200.746 38.3003 201.032 38.4672C201.33 38.6342 201.593 38.8488 201.819 39.1112C202.046 39.3616 202.225 39.6538 202.356 39.9877L201.354 40.3992C201.116 39.8983 200.788 39.5346 200.37 39.308C199.965 39.0814 199.494 38.9681 198.957 38.9681C198.695 38.9681 198.432 39.0039 198.17 39.0754C197.92 39.1351 197.693 39.2305 197.49 39.3616C197.288 39.4809 197.121 39.6359 196.989 39.8267C196.87 40.0056 196.811 40.2084 196.811 40.4349C196.811 40.8046 196.966 41.0909 197.276 41.2936C197.598 41.4963 198.045 41.6692 198.617 41.8124L199.905 42.1343C200.8 42.3609 201.456 42.6889 201.873 43.1182C202.302 43.5356 202.517 44.0305 202.517 44.6029C202.517 44.9726 202.433 45.3185 202.266 45.6405C202.111 45.9625 201.879 46.2487 201.569 46.4991C201.271 46.7376 200.907 46.9284 200.478 47.0716C200.06 47.2147 199.595 47.2862 199.082 47.2862ZM208.556 47V34.1919H212.706C213.255 34.1919 213.767 34.2813 214.244 34.4602C214.733 34.6391 215.157 34.8955 215.515 35.2294C215.872 35.5514 216.153 35.9449 216.355 36.41C216.57 36.8632 216.677 37.3701 216.677 37.9306C216.677 38.4911 216.57 39.0039 216.355 39.469C216.153 39.9221 215.872 40.3157 215.515 40.6496C215.157 40.9716 214.733 41.222 214.244 41.4009C213.767 41.5798 213.255 41.6692 212.706 41.6692H209.701V47H208.556ZM212.76 40.5781C213.153 40.5781 213.517 40.5125 213.851 40.3813C214.185 40.2382 214.471 40.0474 214.71 39.8088C214.96 39.5703 215.157 39.2901 215.3 38.9681C215.443 38.6461 215.515 38.3003 215.515 37.9306C215.515 37.5609 215.443 37.215 215.3 36.893C215.157 36.5591 214.96 36.2789 214.71 36.0523C214.471 35.8138 214.185 35.6289 213.851 35.4977C213.517 35.3546 213.153 35.2831 212.76 35.2831H209.701V40.5781H212.76ZM218.209 47V38.2347H219.283V39.7731H219.354C219.438 39.5107 219.569 39.2722 219.748 39.0575C219.938 38.8309 220.147 38.6401 220.374 38.4851C220.612 38.3181 220.857 38.1929 221.107 38.1094C221.37 38.026 221.62 37.9842 221.859 37.9842C222.133 37.9842 222.359 38.0021 222.538 38.0379C222.717 38.0737 222.89 38.1333 223.057 38.2168L222.699 39.2901C222.461 39.1708 222.133 39.1112 221.715 39.1112C221.405 39.1112 221.107 39.1887 220.821 39.3437C220.535 39.4869 220.284 39.6896 220.07 39.952C219.855 40.2143 219.682 40.5303 219.551 40.9C219.42 41.2578 219.354 41.6514 219.354 42.0807V47H218.209ZM224.881 36.0881C224.631 36.0881 224.416 36.0046 224.237 35.8376C224.07 35.6587 223.987 35.45 223.987 35.2115C223.987 34.9611 224.07 34.7524 224.237 34.5854C224.416 34.4065 224.631 34.3171 224.881 34.3171C225.119 34.3171 225.322 34.4065 225.489 34.5854C225.668 34.7524 225.757 34.9611 225.757 35.2115C225.757 35.45 225.668 35.6587 225.489 35.8376C225.322 36.0046 225.119 36.0881 224.881 36.0881ZM224.309 47V38.2347H225.453V47H224.309ZM226.711 38.2347H227.928L230.915 45.712H230.951L233.956 38.2347H235.155L231.541 47H230.289L226.711 38.2347ZM242.09 45.4437H242.018C241.72 45.9565 241.302 46.3918 240.766 46.7496C240.241 47.1073 239.627 47.2862 238.923 47.2862C238.446 47.2862 238.005 47.2087 237.6 47.0537C237.194 46.9106 236.842 46.7138 236.544 46.4633C236.246 46.201 236.013 45.8909 235.846 45.5331C235.679 45.1754 235.596 44.7878 235.596 44.3704C235.596 43.8934 235.691 43.47 235.882 43.1003C236.085 42.7306 236.353 42.4206 236.687 42.1701C237.033 41.9197 237.427 41.7348 237.868 41.6156C238.321 41.4844 238.798 41.4188 239.299 41.4188C239.895 41.4188 240.432 41.4904 240.909 41.6335C241.386 41.7647 241.779 41.9197 242.09 42.0986V41.5619C242.09 41.1684 242.018 40.8106 241.875 40.4886C241.732 40.1666 241.541 39.8923 241.302 39.6657C241.064 39.4392 240.778 39.2662 240.444 39.147C240.122 39.0277 239.782 38.9681 239.424 38.9681C238.887 38.9681 238.41 39.0873 237.993 39.3259C237.576 39.5524 237.23 39.8864 236.956 40.3276L235.954 39.7015C236.3 39.1649 236.771 38.7415 237.367 38.4314C237.963 38.1094 238.637 37.9484 239.388 37.9484C239.973 37.9484 240.497 38.0379 240.963 38.2168C241.428 38.3837 241.827 38.6282 242.161 38.9502C242.495 39.2603 242.751 39.6359 242.93 40.0772C243.109 40.5065 243.199 40.9895 243.199 41.5261V47H242.09V45.4437ZM242.09 43.1003C241.732 42.8857 241.338 42.7127 240.909 42.5816C240.491 42.4384 240.014 42.3669 239.478 42.3669C239.084 42.3669 238.721 42.4146 238.387 42.51C238.065 42.6054 237.778 42.7426 237.528 42.9214C237.289 43.0884 237.099 43.2971 236.956 43.5475C236.824 43.798 236.759 44.0782 236.759 44.3883C236.759 44.6745 236.818 44.9369 236.938 45.1754C237.069 45.402 237.242 45.5987 237.456 45.7657C237.671 45.9207 237.91 46.0459 238.172 46.1414C238.446 46.2248 238.726 46.2666 239.013 46.2666C239.406 46.2666 239.788 46.1831 240.158 46.0161C240.527 45.8492 240.855 45.6226 241.141 45.3364C241.428 45.0382 241.654 44.6984 241.821 44.3167C242 43.9351 242.09 43.5296 242.09 43.1003ZM245.991 39.2722H244.399V38.2347H245.991V35.5514H247.136V38.2347H249.318V39.2722H247.136V44.5493C247.136 45.0621 247.261 45.4437 247.511 45.6941C247.75 45.9565 248.036 46.0877 248.37 46.0877C248.549 46.0877 248.698 46.0758 248.817 46.0519C248.948 46.0161 249.092 45.9625 249.247 45.8909L249.604 46.8748C249.402 46.9702 249.193 47.0358 248.978 47.0716C248.775 47.1193 248.531 47.1431 248.245 47.1431C247.625 47.1431 247.1 46.9463 246.671 46.5528C246.456 46.3501 246.289 46.1056 246.17 45.8194C246.05 45.5212 245.991 45.1635 245.991 44.7461V39.2722ZM258.638 44.9249C258.483 45.2469 258.286 45.551 258.048 45.8373C257.809 46.1235 257.529 46.3739 257.207 46.5886C256.897 46.8032 256.539 46.9702 256.134 47.0894C255.728 47.2206 255.281 47.2862 254.792 47.2862C254.16 47.2862 253.576 47.1729 253.039 46.9463C252.502 46.7078 252.037 46.3799 251.644 45.9625C251.262 45.5451 250.964 45.0561 250.749 44.4956C250.535 43.9232 250.427 43.2971 250.427 42.6173C250.427 41.9853 250.523 41.389 250.714 40.8285C250.916 40.2561 251.203 39.7611 251.572 39.3437C251.942 38.9144 252.389 38.5745 252.914 38.3241C253.439 38.0737 254.029 37.9484 254.685 37.9484C255.317 37.9484 255.883 38.0617 256.384 38.2883C256.897 38.503 257.332 38.8131 257.69 39.2185C258.048 39.6121 258.322 40.0891 258.513 40.6496C258.716 41.2101 258.817 41.8302 258.817 42.51C258.817 42.5458 258.817 42.5816 258.817 42.6173C258.805 42.6531 258.799 42.6829 258.799 42.7068V42.8141H251.59C251.602 43.4223 251.709 43.9411 251.912 44.3704C252.115 44.7997 252.371 45.1575 252.681 45.4437C252.991 45.718 253.337 45.9207 253.719 46.0519C254.1 46.1831 254.47 46.2487 254.828 46.2487C255.567 46.2487 256.152 46.0817 256.581 45.7478C257.01 45.402 257.368 44.9667 257.654 44.442L258.638 44.9249ZM257.618 41.8481C257.607 41.5619 257.547 41.2518 257.44 40.9179C257.332 40.584 257.165 40.2739 256.939 39.9877C256.712 39.7015 256.408 39.463 256.026 39.2722C255.657 39.0814 255.198 38.986 254.649 38.986C254.291 38.986 253.945 39.0516 253.611 39.1828C253.278 39.302 252.973 39.4809 252.699 39.7194C252.437 39.9579 252.21 40.2561 252.019 40.6138C251.841 40.9716 251.721 41.383 251.662 41.8481H257.618ZM264.929 34.1919H266.074V45.9088H271.87V47H264.929V34.1919ZM274.092 36.0881C273.841 36.0881 273.627 36.0046 273.448 35.8376C273.281 35.6587 273.197 35.45 273.197 35.2115C273.197 34.9611 273.281 34.7524 273.448 34.5854C273.627 34.4065 273.841 34.3171 274.092 34.3171C274.33 34.3171 274.533 34.4065 274.7 34.5854C274.879 34.7524 274.968 34.9611 274.968 35.2115C274.968 35.45 274.879 35.6587 274.7 35.8376C274.533 36.0046 274.33 36.0881 274.092 36.0881ZM273.519 47V38.2347H274.664V47H273.519ZM276.906 38.2347H277.979V39.8804H278.051C278.17 39.618 278.331 39.3736 278.534 39.147C278.736 38.9085 278.963 38.6998 279.213 38.5209C279.476 38.342 279.756 38.2049 280.054 38.1094C280.364 38.0021 280.68 37.9484 281.002 37.9484C281.73 37.9484 282.326 38.1393 282.791 38.5209C283.256 38.9025 283.572 39.3855 283.739 39.9698C284.025 39.3974 284.437 38.9204 284.973 38.5388C285.51 38.1452 286.154 37.9484 286.905 37.9484C287.43 37.9484 287.877 38.0379 288.247 38.2168C288.629 38.3837 288.939 38.6222 289.177 38.9323C289.428 39.2424 289.607 39.6121 289.714 40.0414C289.833 40.4707 289.893 40.9358 289.893 41.4367V47H288.748V41.6335C288.748 40.7629 288.581 40.107 288.247 39.6657C287.913 39.2126 287.37 38.986 286.619 38.986C286.226 38.986 285.862 39.0814 285.528 39.2722C285.206 39.4511 284.926 39.6956 284.687 40.0056C284.461 40.3038 284.282 40.6556 284.151 41.061C284.031 41.4546 283.972 41.866 283.972 42.2953V47H282.827V41.6692C282.827 40.7748 282.654 40.107 282.308 39.6657C281.974 39.2126 281.443 38.986 280.716 38.986C280.31 38.986 279.941 39.0814 279.607 39.2722C279.285 39.463 279.005 39.7194 278.766 40.0414C278.54 40.3634 278.361 40.7331 278.229 41.1505C278.11 41.556 278.051 41.9793 278.051 42.4206V47H276.906V38.2347ZM292.626 36.0881C292.376 36.0881 292.161 36.0046 291.982 35.8376C291.815 35.6587 291.732 35.45 291.732 35.2115C291.732 34.9611 291.815 34.7524 291.982 34.5854C292.161 34.4065 292.376 34.3171 292.626 34.3171C292.865 34.3171 293.068 34.4065 293.235 34.5854C293.414 34.7524 293.503 34.9611 293.503 35.2115C293.503 35.45 293.414 35.6587 293.235 35.8376C293.068 36.0046 292.865 36.0881 292.626 36.0881ZM292.054 47V38.2347H293.199V47H292.054ZM296.337 39.2722H294.745V38.2347H296.337V35.5514H297.482V38.2347H299.664V39.2722H297.482V44.5493C297.482 45.0621 297.607 45.4437 297.858 45.6941C298.096 45.9565 298.382 46.0877 298.716 46.0877C298.895 46.0877 299.044 46.0758 299.163 46.0519C299.295 46.0161 299.438 45.9625 299.593 45.8909L299.95 46.8748C299.748 46.9702 299.539 47.0358 299.324 47.0716C299.122 47.1193 298.877 47.1431 298.591 47.1431C297.971 47.1431 297.446 46.9463 297.017 46.5528C296.802 46.3501 296.635 46.1056 296.516 45.8194C296.397 45.5212 296.337 45.1635 296.337 44.7461V39.2722ZM308.984 44.9249C308.829 45.2469 308.632 45.551 308.394 45.8373C308.155 46.1235 307.875 46.3739 307.553 46.5886C307.243 46.8032 306.885 46.9702 306.48 47.0894C306.074 47.2206 305.627 47.2862 305.138 47.2862C304.506 47.2862 303.922 47.1729 303.385 46.9463C302.849 46.7078 302.383 46.3799 301.99 45.9625C301.608 45.5451 301.31 45.0561 301.095 44.4956C300.881 43.9232 300.774 43.2971 300.774 42.6173C300.774 41.9853 300.869 41.389 301.06 40.8285C301.262 40.2561 301.549 39.7611 301.918 39.3437C302.288 38.9144 302.735 38.5745 303.26 38.3241C303.785 38.0737 304.375 37.9484 305.031 37.9484C305.663 37.9484 306.229 38.0617 306.73 38.2883C307.243 38.503 307.678 38.8131 308.036 39.2185C308.394 39.6121 308.668 40.0891 308.859 40.6496C309.062 41.2101 309.163 41.8302 309.163 42.51C309.163 42.5458 309.163 42.5816 309.163 42.6173C309.151 42.6531 309.145 42.6829 309.145 42.7068V42.8141H301.936C301.948 43.4223 302.056 43.9411 302.258 44.3704C302.461 44.7997 302.717 45.1575 303.027 45.4437C303.338 45.718 303.683 45.9207 304.065 46.0519C304.447 46.1831 304.816 46.2487 305.174 46.2487C305.913 46.2487 306.498 46.0817 306.927 45.7478C307.356 45.402 307.714 44.9667 308 44.442L308.984 44.9249ZM307.965 41.8481C307.953 41.5619 307.893 41.2518 307.786 40.9179C307.678 40.584 307.511 40.2739 307.285 39.9877C307.058 39.7015 306.754 39.463 306.373 39.2722C306.003 39.0814 305.544 38.986 304.995 38.986C304.637 38.986 304.292 39.0516 303.958 39.1828C303.624 39.302 303.32 39.4809 303.045 39.7194C302.783 39.9579 302.556 40.2561 302.366 40.6138C302.187 40.9716 302.067 41.383 302.008 41.8481H307.965ZM317.825 45.4616H317.753C317.61 45.7001 317.437 45.9327 317.235 46.1592C317.032 46.3739 316.793 46.5647 316.519 46.7317C316.245 46.8986 315.935 47.0298 315.589 47.1252C315.243 47.2325 314.861 47.2862 314.444 47.2862C313.883 47.2862 313.353 47.1729 312.852 46.9463C312.351 46.7078 311.91 46.3858 311.528 45.9804C311.158 45.563 310.86 45.068 310.634 44.4956C310.419 43.9232 310.312 43.2971 310.312 42.6173C310.312 41.9376 310.419 41.3115 310.634 40.739C310.86 40.1666 311.158 39.6777 311.528 39.2722C311.91 38.8548 312.351 38.5328 312.852 38.3062C313.353 38.0677 313.883 37.9484 314.444 37.9484C315.279 37.9484 315.97 38.1273 316.519 38.4851C317.068 38.8429 317.479 39.2662 317.753 39.7552H317.825L317.753 38.5388V34.1919H318.898V47H317.825V45.4616ZM314.641 46.2487C315.058 46.2487 315.458 46.1712 315.839 46.0161C316.233 45.8492 316.573 45.6107 316.859 45.3006C317.157 44.9786 317.39 44.597 317.556 44.1557C317.735 43.7026 317.825 43.1898 317.825 42.6173C317.825 42.0449 317.735 41.5321 317.556 41.0789C317.39 40.6258 317.157 40.2441 316.859 39.9341C316.573 39.624 316.233 39.3915 315.839 39.2364C315.458 39.0695 315.058 38.986 314.641 38.986C314.223 38.986 313.818 39.0695 313.424 39.2364C313.043 39.4034 312.703 39.6479 312.405 39.9698C312.118 40.2799 311.886 40.6615 311.707 41.1147C311.54 41.556 311.457 42.0568 311.457 42.6173C311.457 43.1778 311.54 43.6847 311.707 44.1378C311.886 44.591 312.118 44.9726 312.405 45.2827C312.703 45.5928 313.043 45.8313 313.424 45.9982C313.818 46.1652 314.223 46.2487 314.641 46.2487Z" fill="white" fill-opacity="0.5"/>
<defs>
<linearGradient id="paint0_linear_3589_567" x1="8.36756" y1="60.2434" x2="36.43" y2="14.7863" gradientUnits="userSpaceOnUse">
<stop stop-color="#A92DE2"/>
<stop offset="0.21" stop-color="#BB46E8"/>
<stop offset="0.74" stop-color="#E680F8"/>
<stop offset="0.99" stop-color="#F798FF"/>
</linearGradient>
<linearGradient id="paint1_linear_3589_567" x1="20.129" y1="46.7874" x2="67.1674" y2="-1.48093" gradientUnits="userSpaceOnUse">
<stop stop-color="#54A8FF"/>
<stop offset="0.22" stop-color="#64BFFF"/>
<stop offset="0.52" stop-color="#75D9FF"/>
<stop offset="0.79" stop-color="#80E8FF"/>
<stop offset="1" stop-color="#84EEFF"/>
</linearGradient>
<linearGradient id="paint2_linear_3589_567" x1="14.6571" y1="40.1094" x2="53.1362" y2="12.9255" gradientUnits="userSpaceOnUse">
<stop stop-color="#4121CC"/>
<stop offset="0.36" stop-color="#535ADF"/>
<stop offset="1" stop-color="#73BBFF"/>
</linearGradient>
<linearGradient id="paint3_linear_3589_567" x1="8.18247" y1="56.3025" x2="31.0491" y2="26.1065" gradientUnits="userSpaceOnUse">
<stop stop-color="#A92DE2"/>
<stop offset="0.21" stop-color="#BB46E8"/>
<stop offset="0.74" stop-color="#E680F8"/>
<stop offset="0.99" stop-color="#F798FF"/>
</linearGradient>
</defs>
</svg>
